<svg width="28" height="23" viewBox="0 0 28 23" fill="none" xmlns="http://www.w3.org/2000/svg">
<path d="M1.46782 12.4476C1.46782 16.8253 5.29249 19.9253 9.18686 21.1542C13.0373 22.3693 16.9226 22.4055 20.5315 20.4005C23.1186 18.9633 25.503 16.3462 26.3533 13.4742C27.2449 10.4623 26.4569 7.17655 24.443 4.8065C21.9784 1.90595 18.5469 0.874665 14.8007 1.01196C7.98601 1.26171 1.56568 5.84437 1 12.9154" stroke="#DC2626" stroke-linecap="round"/>
<path d="M11.7319 5.30448C12.486 5.30448 13.1439 5.1585 13.8763 5.03644" stroke="#DC2626" stroke-linecap="round"/>
<path d="M20.3091 5.03643C20.8016 4.97762 21.2895 4.93768 21.7833 4.9024" stroke="#DC2626" stroke-linecap="round"/>
<path d="M11.8408 10.0669C12.5633 9.31232 13.0944 8.52212 14.0301 7.99282C15.1351 7.36775 16.4269 6.84056 17.7101 6.77576C19.0217 6.70951 20.243 6.80608 21.4117 7.45991C22.1049 7.8477 22.8141 8.34161 23.3129 8.96503" stroke="#DC2626" stroke-linecap="round"/>
</svg>
