<svg width="165" height="37" viewBox="0 0 165 37" fill="none" xmlns="http://www.w3.org/2000/svg">
<path d="M2.448 21.736C2.992 20.04 3.424 18.312 3.744 16.552C4.064 14.76 4.32 13.032 4.512 11.368C4.704 9.704 4.864 8.152 4.992 6.712C5.12 5.272 5.264 4.024 5.424 2.968C5.488 2.456 5.76 1.944 6.24 1.432C6.72 0.887999 7.504 0.615999 8.592 0.615999C9.328 0.615999 9.936 0.807999 10.416 1.192C10.896 1.576 11.232 2.024 11.424 2.536C11.52 2.76 11.6 3.272 11.664 4.072C11.728 4.872 11.808 5.736 11.904 6.664C12.032 7.56 12.176 8.44 12.336 9.304C12.528 10.136 12.784 10.728 13.104 11.08C13.392 11.432 13.728 11.688 14.112 11.848C14.528 12.008 14.96 12.088 15.408 12.088C15.856 12.088 16.288 12.008 16.704 11.848C17.12 11.688 17.488 11.432 17.808 11.08C18.096 10.76 18.288 10.248 18.384 9.544C18.512 8.808 18.576 8.04 18.576 7.24C18.608 6.408 18.608 5.608 18.576 4.84C18.576 4.072 18.608 3.448 18.672 2.968C18.736 2.456 19.008 1.944 19.488 1.432C20 0.887999 20.8 0.615999 21.888 0.615999C22.624 0.615999 23.232 0.807999 23.712 1.192C24.192 1.576 24.528 2.024 24.72 2.536C24.912 2.984 25.072 3.896 25.2 5.272C25.36 6.616 25.552 8.168 25.776 9.928C26 11.688 26.256 13.512 26.544 15.4C26.864 17.256 27.28 18.92 27.792 20.392C28.24 21.64 28.656 22.92 29.04 24.232C29.424 25.544 29.728 26.824 29.952 28.072C30.176 29.288 30.288 30.44 30.288 31.528C30.32 32.616 30.176 33.576 29.856 34.408C29.568 35.208 29.072 35.848 28.368 36.328C27.696 36.776 26.768 37 25.584 37H20.208C19.44 37 18.72 36.824 18.048 36.472C17.408 36.088 16.928 35.416 16.608 34.456C16.288 33.464 16.208 32.136 16.368 30.472C16.528 28.776 17.04 26.616 17.904 23.992C18.064 23.48 18.176 22.952 18.24 22.408C18.336 21.864 18.384 21.352 18.384 20.872C18.416 20.392 18.4 19.96 18.336 19.576C18.272 19.192 18.192 18.936 18.096 18.808C17.936 18.584 17.6 18.44 17.088 18.376C16.576 18.28 16.032 18.232 15.456 18.232C14.848 18.232 14.272 18.28 13.728 18.376C13.184 18.472 12.8 18.616 12.576 18.808C12.416 18.968 12.304 19.192 12.24 19.48C12.208 19.736 12.208 20.024 12.24 20.344C12.272 20.664 12.32 20.984 12.384 21.304C12.48 21.592 12.544 21.848 12.576 22.072C12.96 23.768 13.328 25.496 13.68 27.256C14.064 29.016 14.224 30.616 14.16 32.056C14.128 33.496 13.76 34.68 13.056 35.608C12.384 36.536 11.168 37 9.408 37H3.6C2.832 37 2.176 36.696 1.632 36.088C1.12 35.48 0.768 34.552 0.576 33.304C0.416 32.056 0.464 30.472 0.72 28.552C1.008 26.632 1.584 24.36 2.448 21.736ZM31.422 31.528C31.774 29.736 32.334 27.976 33.102 26.248C33.87 24.52 34.558 22.808 35.166 21.112C35.646 19.736 36.046 18.392 36.366 17.08C36.718 15.768 37.118 14.408 37.566 13C37.63 12.776 37.726 12.392 37.854 11.848C38.014 11.272 38.206 10.616 38.43 9.88C38.654 9.144 38.91 8.36 39.198 7.528C39.518 6.696 39.87 5.88 40.254 5.08C40.638 4.28 41.054 3.56 41.502 2.92C41.982 2.248 42.51 1.72 43.086 1.336C43.79 0.887999 44.574 0.663999 45.438 0.663999C46.142 0.663999 46.814 0.807999 47.454 1.096C48.126 1.352 48.638 1.752 48.99 2.296C49.662 3.288 50.222 4.328 50.67 5.416C51.118 6.472 51.518 7.56 51.87 8.68C52.254 9.768 52.59 10.888 52.878 12.04C53.198 13.16 53.55 14.28 53.934 15.4C54.318 16.584 54.862 17.896 55.566 19.336C56.27 20.744 56.958 22.168 57.63 23.608C58.302 25.048 58.878 26.456 59.358 27.832C59.87 29.208 60.142 30.44 60.174 31.528C60.174 32.136 60.126 32.776 60.03 33.448C59.966 34.088 59.806 34.68 59.55 35.224C59.326 35.736 59.006 36.168 58.59 36.52C58.206 36.84 57.71 37 57.102 37H50.238C49.47 37 48.878 36.632 48.462 35.896C48.046 35.128 47.742 34.168 47.55 33.016C47.39 31.864 47.31 30.616 47.31 29.272C47.342 27.928 47.39 26.664 47.454 25.48C47.55 24.296 47.63 23.288 47.694 22.456C47.79 21.592 47.822 21.096 47.79 20.968C47.726 20.712 47.486 20.52 47.07 20.392C46.654 20.232 46.174 20.152 45.63 20.152C45.086 20.152 44.542 20.232 43.998 20.392C43.486 20.552 43.15 20.792 42.99 21.112C42.958 21.176 43.054 21.624 43.278 22.456C43.502 23.256 43.742 24.248 43.998 25.432C44.254 26.584 44.478 27.848 44.67 29.224C44.894 30.568 44.974 31.816 44.91 32.968C44.846 34.12 44.59 35.08 44.142 35.848C43.694 36.616 42.958 37 41.934 37H34.638C33.71 37 33.006 36.808 32.526 36.424C32.046 36.008 31.71 35.512 31.518 34.936C31.326 34.36 31.23 33.768 31.23 33.16C31.262 32.52 31.326 31.976 31.422 31.528ZM43.23 14.104C43.326 14.456 43.566 14.728 43.95 14.92C44.366 15.112 44.814 15.208 45.294 15.208C45.838 15.208 46.366 15.096 46.878 14.872C47.39 14.648 47.694 14.312 47.79 13.864C47.886 13.48 47.886 12.872 47.79 12.04C47.726 11.176 47.582 10.328 47.358 9.496C47.134 8.632 46.846 7.88 46.494 7.24C46.174 6.6 45.806 6.312 45.39 6.376C44.91 6.44 44.494 6.808 44.142 7.48C43.822 8.12 43.582 8.872 43.422 9.736C43.262 10.6 43.166 11.448 43.134 12.28C43.102 13.112 43.134 13.72 43.23 14.104ZM61.1363 30.952C61.2323 29.768 61.4083 28.6 61.6643 27.448C61.9203 26.264 62.1923 25 62.4803 23.656C62.8003 22.312 63.1043 20.84 63.3923 19.24C63.6803 17.64 63.8882 15.832 64.0163 13.816C64.1123 12.28 64.1283 10.744 64.0643 9.208C64.0003 7.64 64.0003 6.232 64.0643 4.984C64.1283 3.736 64.3363 2.728 64.6883 1.96C65.0403 1.16 65.6803 0.759997 66.6083 0.759997C67.6963 0.759997 68.7523 1.016 69.7763 1.528C70.8323 2.008 71.8243 2.632 72.7523 3.4C73.7123 4.168 74.5923 5 75.3923 5.896C76.2243 6.792 76.9443 7.656 77.5523 8.488C78.1923 9.288 78.7203 9.992 79.1363 10.6C79.5523 11.176 79.8083 11.528 79.9043 11.656C80.3203 12.168 80.6563 12.424 80.9123 12.424C81.0723 12.424 81.2003 12.28 81.2963 11.992C81.4243 11.704 81.5203 11.224 81.5843 10.552C81.6483 9.848 81.6963 8.936 81.7283 7.816C81.7603 6.664 81.7763 5.224 81.7763 3.496C81.7763 1.64 82.6243 0.711998 84.3203 0.711998C84.5123 0.711998 84.7683 0.743999 85.0883 0.808C85.4083 0.839999 85.7283 0.951999 86.0483 1.144C86.3683 1.336 86.6403 1.624 86.8643 2.008C87.1203 2.36 87.2643 2.856 87.2963 3.496C87.5203 7.336 87.7923 10.584 88.1123 13.24C88.4643 15.896 88.8003 18.248 89.1203 20.296C89.4403 22.344 89.7123 24.216 89.9363 25.912C90.1603 27.576 90.2403 29.368 90.1763 31.288C90.1123 32.856 89.6003 34.2 88.6403 35.32C87.6803 36.44 86.2403 37 84.3203 37C81.8883 37 80.0963 36.344 78.9443 35.032C77.7923 33.72 77.2963 32.04 77.4563 29.992C77.6483 27.592 77.4723 25.288 76.9283 23.08C76.4163 20.84 75.7763 18.872 75.0083 17.176C74.2403 15.48 73.4563 14.136 72.6562 13.144C71.8883 12.12 71.3283 11.624 70.9763 11.656C70.4963 11.688 70.2083 11.96 70.1123 12.472C70.0163 12.984 70.0163 13.576 70.1123 14.248C70.2083 14.92 70.3523 15.592 70.5443 16.264C70.7363 16.936 70.8803 17.448 70.9763 17.8C71.2643 19.08 71.6803 20.376 72.2243 21.688C72.8003 22.968 73.3283 24.248 73.8083 25.528C74.2883 26.808 74.6723 28.072 74.9603 29.32C75.2483 30.568 75.2643 31.784 75.0083 32.968C74.9123 33.416 74.7523 33.88 74.5283 34.36C74.3043 34.84 73.9203 35.272 73.3763 35.656C72.8643 36.04 72.1763 36.36 71.3123 36.616C70.4803 36.872 69.3923 37 68.0483 37C67.2803 37 66.4643 36.888 65.6003 36.664C64.7683 36.44 64.0003 36.088 63.2963 35.608C62.6243 35.096 62.0803 34.456 61.6643 33.688C61.2483 32.92 61.0723 32.008 61.1363 30.952ZM92.1443 28.84C92.3363 28.52 92.6083 28.072 92.9603 27.496C93.3123 26.888 93.6163 26.024 93.8723 24.904C94.1603 23.784 94.3363 22.328 94.4003 20.536C94.4963 18.712 94.3683 16.44 94.0163 13.72C93.9523 13.112 93.8243 12.392 93.6323 11.56C93.4723 10.728 93.3123 9.88 93.1523 9.016C93.0243 8.12 92.9283 7.224 92.8643 6.328C92.8003 5.432 92.8163 4.616 92.9123 3.88C93.0403 3.112 93.2803 2.456 93.6323 1.912C93.9843 1.368 94.5123 0.999999 95.2163 0.808C95.6003 0.711999 95.9683 0.663999 96.3203 0.663999C96.8643 0.663999 97.3603 0.743999 97.8083 0.903998C98.2563 1.064 98.5443 1.208 98.6723 1.336C99.1203 1.176 99.6323 1.032 100.208 0.903998C100.784 0.743999 101.408 0.663999 102.08 0.663999H102.56C103.808 0.727998 105.072 1.192 106.352 2.056C107.632 2.888 108.8 4.072 109.856 5.608C110.944 7.112 111.856 8.952 112.592 11.128C113.36 13.272 113.824 15.72 113.984 18.472C114.08 20.04 114.048 21.624 113.888 23.224C113.76 24.824 113.472 26.344 113.024 27.784C112.608 29.192 112.032 30.488 111.296 31.672C110.56 32.824 109.664 33.784 108.608 34.552C107.168 35.576 105.696 36.248 104.192 36.568C102.72 36.856 101.152 37 99.4883 37H98.9123C98.3363 37 97.8243 37 97.3763 37C96.9603 36.968 96.4643 36.952 95.8883 36.952C94.3203 36.952 93.1843 36.632 92.4803 35.992C91.7763 35.352 91.3443 34.6 91.1843 33.736C91.0563 32.84 91.1043 31.944 91.3283 31.048C91.5843 30.12 91.8563 29.384 92.1443 28.84ZM103.856 20.728C104.24 20.728 104.56 20.552 104.816 20.2C105.104 19.816 105.344 19.32 105.536 18.712C105.728 18.104 105.856 17.432 105.92 16.696C106.016 15.928 106.048 15.16 106.016 14.392C105.984 13.592 105.904 12.824 105.776 12.088C105.648 11.32 105.456 10.648 105.2 10.072C104.976 9.464 104.688 8.984 104.336 8.632C103.984 8.248 103.568 8.056 103.088 8.056C102.576 8.024 102.16 8.328 101.84 8.968C101.552 9.576 101.344 10.36 101.216 11.32C101.12 12.248 101.104 13.272 101.168 14.392C101.264 15.48 101.424 16.504 101.648 17.464C101.872 18.392 102.176 19.176 102.56 19.816C102.944 20.456 103.376 20.76 103.856 20.728ZM118.308 14.728C118.34 13.864 118.26 12.808 118.068 11.56C117.876 10.312 117.732 9.064 117.636 7.816C117.54 6.536 117.572 5.336 117.732 4.216C117.892 3.096 118.324 2.216 119.028 1.576C119.284 1.32 119.588 1.112 119.94 0.951998C120.324 0.791998 120.772 0.711998 121.284 0.711998C121.636 0.711998 122.02 0.759998 122.436 0.855999C123.108 0.983999 123.62 1.304 123.972 1.816C124.324 2.328 124.58 2.968 124.74 3.736C124.9 4.472 124.964 5.288 124.932 6.184C124.932 7.08 124.9 7.992 124.836 8.92C124.772 9.816 124.692 10.696 124.596 11.56C124.5 12.392 124.452 13.112 124.452 13.72C124.42 14.776 124.436 15.992 124.5 17.368C124.564 18.712 124.708 19.992 124.932 21.208C125.188 22.392 125.54 23.4 125.988 24.232C126.436 25.064 127.028 25.48 127.764 25.48C127.892 25.48 128.084 25.448 128.34 25.384C129.46 25.032 130.564 24.728 131.652 24.472C132.74 24.216 133.748 24.088 134.676 24.088C135.892 24.088 136.948 24.376 137.844 24.952C138.772 25.496 139.46 26.504 139.908 27.976C140.196 28.872 140.308 29.848 140.244 30.904C140.212 31.96 140.004 32.936 139.62 33.832C139.268 34.728 138.756 35.48 138.084 36.088C137.412 36.696 136.564 37 135.54 37H135.396C134.948 36.968 134.388 36.952 133.716 36.952C133.076 36.952 132.34 36.952 131.508 36.952C130.708 36.952 129.844 36.952 128.916 36.952C127.988 36.952 127.06 36.968 126.132 37C125.204 37 124.292 37 123.396 37C122.5 37 121.652 37 120.852 37C119.828 37 118.948 36.856 118.212 36.568C117.508 36.28 116.98 35.928 116.628 35.512C115.924 34.648 115.46 33.672 115.236 32.584C115.044 31.464 114.996 30.296 115.092 29.08C115.22 27.832 115.46 26.552 115.812 25.24C116.164 23.928 116.516 22.648 116.868 21.4C117.22 20.152 117.54 18.968 117.828 17.848C118.116 16.696 118.276 15.656 118.308 14.728ZM141.349 0.808C142.053 0.935998 142.725 1.256 143.365 1.768C144.037 2.28 144.661 2.888 145.237 3.592C145.845 4.264 146.405 4.984 146.917 5.752C147.461 6.52 147.957 7.24 148.405 7.912C148.885 8.552 149.301 9.096 149.653 9.544C150.037 9.96 150.357 10.168 150.613 10.168C150.933 10.168 151.301 9.944 151.717 9.496C152.165 9.016 152.645 8.44 153.157 7.768C153.669 7.064 154.229 6.312 154.837 5.512C155.445 4.68 156.085 3.928 156.757 3.256C157.429 2.552 158.133 1.976 158.869 1.528C159.605 1.048 160.373 0.808 161.173 0.808C161.589 0.808 162.037 0.903999 162.517 1.096C163.221 1.384 163.701 1.848 163.957 2.488C164.213 3.128 164.213 3.88 163.957 4.744C163.733 5.576 163.253 6.472 162.517 7.432C161.813 8.392 160.837 9.304 159.589 10.168C158.373 11 157.301 11.976 156.373 13.096C155.477 14.184 154.965 15.544 154.837 17.176C154.741 18.328 154.885 19.624 155.269 21.064C155.685 22.504 156.149 23.96 156.661 25.432C157.173 26.872 157.653 28.296 158.101 29.704C158.549 31.08 158.789 32.312 158.821 33.4C158.853 34.488 158.581 35.368 158.005 36.04C157.429 36.68 156.373 37 154.837 37H146.101C145.045 37 144.309 36.712 143.893 36.136C143.477 35.528 143.269 34.728 143.269 33.736C143.269 32.712 143.397 31.528 143.653 30.184C143.941 28.84 144.245 27.448 144.565 26.008C144.885 24.536 145.173 23.048 145.429 21.544C145.685 20.008 145.781 18.552 145.717 17.176C145.653 15.896 145.285 14.76 144.613 13.768C143.973 12.744 143.205 11.8 142.309 10.936C141.445 10.04 140.565 9.192 139.669 8.392C138.773 7.592 138.053 6.776 137.509 5.944C137.189 5.464 136.997 4.92 136.933 4.312C136.869 3.704 136.949 3.144 137.173 2.632C137.429 2.088 137.813 1.64 138.325 1.288C138.837 0.903998 139.509 0.711998 140.341 0.711998C140.501 0.711998 140.661 0.727998 140.821 0.759997C140.981 0.759997 141.157 0.775998 141.349 0.808Z" fill="url(#paint0_linear_3_320)"/>
<defs>
<linearGradient id="paint0_linear_3_320" x1="0" y1="38" x2="169" y2="38" gradientUnits="userSpaceOnUse">
<stop offset="0.225962" stop-color="#9356FC"/>
<stop offset="0.778846" stop-color="#CD8EFA"/>
</linearGradient>
</defs>
</svg>
