<svg width="32" height="33" viewBox="0 0 32 33" fill="none" xmlns="http://www.w3.org/2000/svg">
<path d="M1.62302 20.1986C3.23288 27.3956 10.147 32.3757 17.3781 32.0613C20.9545 31.9058 24.8257 30.3095 27.0759 27.4571C30.1404 23.5725 30.9759 19.1146 30.4493 14.2821C29.5449 5.98266 20.9871 -1.50131 12.5589 1.79666C8.48386 3.39126 5.1734 6.99956 3.10586 10.7901C2.07158 12.6862 1.36353 14.6846 1.07437 16.8326C0.83539 18.6079 1.20151 20.1352 1.75648 21.8001" stroke="#9356FC" stroke-linecap="round"/>
<path d="M15.8475 20.1419C15.4826 20.4662 14.5878 19.2969 14.3688 19.0505C13.516 18.0911 12.6179 16.7251 12.8467 15.3646C12.9739 14.6088 13.6161 13.6587 14.4581 14.154C15.2307 14.6085 15.786 15.5276 16.2862 16.2421" stroke="#9356FC" stroke-linecap="round"/>
<path d="M16.8709 16.1446C16.2149 16.5906 16.8095 15.4215 16.9224 15.2183C17.2122 14.6966 17.6963 14.1817 18.1979 13.8669C18.497 13.6793 19.0107 13.4102 19.3489 13.6638C19.5978 13.8505 19.6193 14.347 19.6496 14.6225C19.7178 15.2446 19.7683 15.9548 19.6387 16.5725C19.287 18.2492 18.1232 19.4049 16.7247 20.2881" stroke="#9356FC" stroke-linecap="round"/>
<path d="M25.7925 16.9246C25.9947 17.1141 25.6863 16.6433 25.6463 16.5833C25.3029 16.0683 25.0268 15.573 24.7905 14.9963C24.3362 13.8879 23.7217 12.2714 24.3734 11.1127C24.9679 10.0558 26.0311 11.1358 26.4506 11.7573C26.8791 12.392 27.1628 13.0409 27.4012 13.7559" stroke="#9356FC" stroke-linecap="round"/>
<path d="M27.401 13.3172C27.1847 12.6683 28.1161 11.863 28.5737 11.5406C28.726 11.4333 29.1086 11.2088 29.313 11.2915C29.6429 11.4248 29.7409 11.7906 29.7409 12.1093C29.7409 12.6315 29.5204 13.1557 29.3536 13.6422C29.1503 14.2352 28.8591 14.8242 28.5439 15.3646C27.9504 16.382 27.0554 16.9543 25.9873 17.412" stroke="#9356FC" stroke-linecap="round"/>
<path d="M20.4053 23.2152C21.0173 24.4733 22.0718 25.5816 23.6319 25.2081C25.1422 24.8465 25.435 23.7358 25.435 22.3611" stroke="#9356FC" stroke-linecap="round"/>
</svg>
