<svg width="264" height="322" viewBox="0 0 264 322" fill="none" xmlns="http://www.w3.org/2000/svg">
<path d="M52.2373 204.353C56.2443 202.436 60.2597 202.649 63.5931 203.3C65.2658 203.626 66.8827 204.087 68.3304 204.517C68.621 204.603 68.9034 204.688 69.1775 204.77C70.3242 205.113 71.3391 205.418 72.3262 205.66C76.4749 206.678 80.2823 208.261 83.8537 209.897C83.8546 209.876 83.8549 209.855 83.8559 209.834C83.9921 206.898 84.7846 203.438 86.393 200.317C87.9944 197.211 90.6042 194.081 94.5622 192.498C99.0544 190.701 103.11 191.932 105.971 193.974C108.759 195.964 110.774 198.919 111.793 201.646C113.086 205.108 113.153 208.579 112.612 211.977C112.594 212.09 112.568 212.213 112.539 212.342C124.479 213.95 136.246 216.153 147.907 218.388C148.941 218.586 149.974 218.785 151.007 218.983C162.745 221.237 174.383 223.472 186.153 225.157C188.825 225.54 191.496 225.924 194.165 226.308C222.002 230.308 249.704 234.289 277.713 236.71C279.767 236.888 281.183 238.611 280.877 240.558C280.57 242.505 278.657 243.94 276.603 243.762C248.362 241.321 220.444 237.309 192.644 233.313C189.964 232.928 187.286 232.543 184.609 232.159C172.648 230.447 160.836 228.178 149.131 225.93C148.088 225.73 147.047 225.531 146.006 225.331C134.02 223.034 122.127 220.809 110.107 219.224C109.989 219.4 109.748 219.726 109.385 220.038C109.182 220.212 108.33 220.928 106.989 221.018C105.198 221.14 104.105 220.119 103.661 219.41C102.982 218.326 103.026 217 103.655 215.919C103.674 215.87 103.697 215.813 103.721 215.749C103.877 215.337 104.091 214.735 104.314 214.076C104.536 213.42 104.757 212.742 104.928 212.182C105.066 211.728 105.135 211.468 105.162 211.367C105.174 211.322 105.178 211.308 105.176 211.322C105.587 208.748 105.485 206.478 104.682 204.331C104.047 202.628 102.758 200.807 101.215 199.706C99.7442 198.657 98.4383 198.48 97.1602 198.992C95.6094 199.612 94.2102 200.997 93.1227 203.107C92.0424 205.203 91.4647 207.662 91.3684 209.738C91.3316 210.532 91.4545 211.612 91.776 212.426C91.868 212.659 91.9522 212.816 92.0185 212.92C92.2804 212.994 92.5093 213.061 92.6743 213.113C92.7553 213.138 92.9498 213.199 93.1463 213.28C93.204 213.304 93.3 213.345 93.4127 213.402C93.4917 213.442 93.7417 213.569 94.0159 213.784C94.1489 213.889 94.4231 214.118 94.6789 214.479C94.9142 214.812 95.3864 215.615 95.2501 216.756C95.0953 218.05 94.2745 218.924 93.6227 219.374C93.0534 219.768 92.5208 219.921 92.2971 219.978C91.8327 220.097 91.4544 220.103 91.357 220.105L91.3539 220.105C91.2006 220.108 91.0757 220.102 91.0058 220.097C90.8634 220.088 90.7416 220.074 90.6719 220.065C90.5224 220.045 90.3615 220.02 90.2158 219.995C89.5059 219.873 88.8759 219.66 88.3182 219.384C86.9442 218.998 84.6063 218.336 83.343 217.741C78.7652 215.584 74.5986 213.636 70.0446 212.519C68.8542 212.227 67.612 211.854 66.4538 211.507C66.1981 211.43 65.946 211.355 65.6999 211.281C64.2802 210.86 62.9573 210.488 61.6666 210.236C59.0895 209.733 57.0895 209.799 55.3644 210.613C55.3573 210.631 55.3491 210.656 55.3403 210.687C55.2489 211.002 55.2058 211.626 55.3928 212.577C55.7712 214.499 56.8336 216.511 57.5037 217.351C58.8827 219.078 60.4987 220.341 62.4068 221.561C63.3013 222.133 64.2264 222.676 65.2377 223.269C65.3248 223.32 65.4129 223.371 65.5013 223.423C66.5951 224.065 67.7748 224.762 68.9695 225.545C69.452 225.862 69.8218 226.082 70.0866 226.229C70.1816 226.258 70.2738 226.288 70.3622 226.319C70.6141 226.406 71.086 226.584 71.5303 226.891C71.6314 226.96 71.9425 227.177 72.2399 227.537C72.3798 227.706 72.692 228.112 72.8658 228.725C73.0606 229.413 73.1187 230.583 72.279 231.725C71.5302 232.743 70.5203 233.103 70.0747 233.224C69.5882 233.357 69.1887 233.37 68.9959 233.37C68.5955 233.37 68.2848 233.31 68.1624 233.285C67.7278 233.195 67.3356 233.038 67.0796 232.926C66.9076 232.911 66.6792 232.907 66.4021 232.936C65.5312 233.028 64.558 233.08 63.6985 233.127C63.388 233.144 63.0917 233.159 62.8209 233.176C61.6889 233.246 60.7486 233.337 59.9322 233.511C58.474 233.823 57.794 234.287 57.3295 235.227C57.4447 235.339 57.6616 235.519 58.048 235.75C58.7043 236.143 59.5466 236.51 60.539 236.903C60.7259 236.977 60.9313 237.056 61.1459 237.139C61.9089 237.435 62.7989 237.781 63.4741 238.111C63.7447 238.243 64.3477 238.425 65.345 238.568C66.288 238.702 67.3595 238.771 68.4072 238.797C69.4451 238.823 70.403 238.804 71.1034 238.78C71.4514 238.768 71.7318 238.754 71.9207 238.743C72.015 238.738 72.0871 238.734 72.1325 238.731L72.1806 238.727L72.1877 238.727C72.1876 238.727 72.1885 238.728 72.1886 238.732L73.421 245.551C73.4219 245.553 73.4226 245.555 73.4228 245.555L73.4179 245.556L73.3804 245.57C73.345 245.583 73.2891 245.604 73.2148 245.632C73.0657 245.688 72.844 245.774 72.5695 245.883C72.0173 246.103 71.2658 246.415 70.4625 246.787C68.6449 247.628 67.2905 248.447 66.8372 248.925C65.1881 250.664 65.4218 253.766 67.4993 255.2C68.7685 256.075 71.2882 256.265 75.0916 255.34C78.655 254.472 82.3011 252.879 84.7274 251.685C86.6096 250.76 88.8473 251.406 89.7242 253.128C90.6007 254.85 89.7853 256.997 87.9033 257.923C85.2532 259.226 80.9869 261.116 76.5761 262.189C72.405 263.204 66.8871 263.792 62.8324 260.994C57.7338 257.475 56.5524 250.052 60.8827 244.91C60.4825 244.776 60.0898 244.619 59.7161 244.437C59.3379 244.252 58.8699 244.069 58.2046 243.811C57.9356 243.706 57.6338 243.589 57.293 243.454C56.2496 243.041 54.9442 242.497 53.7605 241.789C52.6128 241.102 51.2258 240.057 50.4121 238.48C49.5007 236.714 49.5173 234.69 50.4792 232.68C52.0212 229.458 54.6146 227.825 57.194 227.001C55.1841 225.655 53.181 224.04 51.3998 221.809C50.0957 220.176 48.5798 217.217 47.9957 214.25C47.7017 212.756 47.5811 210.955 48.0937 209.189C48.6456 207.288 49.9436 205.45 52.2373 204.353ZM219.746 26.9653C223.06 22.9252 227.946 20.8754 232.661 20.247C237.364 19.6203 242.3 20.3398 246.203 22.2635C247.997 23.1481 248.607 25.279 247.563 27.0225C246.519 28.7661 244.217 29.4627 242.423 28.5784C239.94 27.3546 236.56 26.8215 233.293 27.2568C230.037 27.6907 227.296 29.0193 225.598 31.0883C223.965 33.0791 223.506 36.7354 224.365 39.7974C224.43 39.8532 224.527 39.9303 224.733 40.0879L224.761 40.1091C224.976 40.273 225.289 40.5134 225.617 40.8018C225.572 40.7626 225.678 40.8431 226.071 41.1525C226.207 41.2596 226.368 41.387 226.5 41.4972C226.557 41.5446 226.659 41.6311 226.761 41.7271L226.763 41.7295C226.8 41.7635 226.935 41.8907 227.078 42.0642L227.082 42.0689C227.134 42.1312 227.36 42.4068 227.541 42.81C227.621 42.9897 227.856 43.5426 227.819 44.3039C227.77 45.2815 227.24 46.5615 225.876 47.3414C224.543 48.1035 223.107 48.0707 222.589 48.055C221.842 48.0322 221.08 47.9248 220.471 47.8239C220.003 47.7461 219.515 47.652 219.124 47.5771C219.005 47.5544 218.895 47.5341 218.797 47.5157C218.382 47.4377 218.228 47.4172 218.221 47.4135C215.02 47.3259 211.244 47.9414 207.963 48.9121C207.292 49.1109 205.933 49.6448 204.784 50.3185C204.352 50.5723 204.036 50.7956 203.828 50.9685C203.872 51.5505 204.112 52.2711 204.642 53.1469C205.317 54.2607 206.298 55.3516 207.331 56.3627C211.076 60.0301 215.855 63.4215 220.636 65.9616C221.215 66.2688 221.776 66.6263 222.216 66.9065L222.248 66.9272C222.736 67.2378 223.114 67.4776 223.486 67.6806C224.191 68.0662 224.453 68.075 224.467 68.0757C224.94 68.0327 225.681 68.0004 226.456 68.1983C227.299 68.4138 228.716 69.0793 229.175 70.7382C229.555 72.1121 228.983 73.2485 228.763 73.6432C228.485 74.1393 228.147 74.5331 227.921 74.7783C227.212 75.5467 225.873 76.5927 225.71 76.7197C225.702 76.7264 225.696 76.7304 225.694 76.7315C225.031 77.2936 224.371 77.841 223.723 78.3782C221.325 80.3679 219.09 82.2228 217.427 84.2C215.537 86.4453 214.525 88.1028 214.337 89.8516C214.496 89.9274 214.709 90.0158 214.981 90.1094C216.185 90.5239 217.684 90.7537 218.608 90.8703C227.82 92.0326 236.447 87.3293 241.931 79.6516C242.086 79.4334 242.262 79.2341 242.454 79.0562C242.027 78.0634 242.106 76.8723 242.776 75.8435C243.889 74.1356 246.212 73.5216 247.965 74.4731C269.747 86.2975 294.682 93.7111 319.625 99.7235C321.605 100.201 322.708 102.126 322.087 104.022C321.465 105.918 319.355 107.067 317.373 106.59C293.863 100.923 269.863 93.9114 248.341 82.973C248.268 83.1061 248.187 83.2377 248.096 83.3655C241.32 92.8526 229.955 99.5002 217.192 97.8896C216.182 97.7622 214.026 97.4577 212.048 96.7772C211.069 96.4403 209.902 95.9345 208.919 95.1506C207.913 94.3488 206.822 93.014 206.788 91.0859C206.704 86.3849 209.276 82.8073 211.636 80.0016C213.641 77.6196 216.333 75.3378 218.661 73.4077C218.364 73.227 218.087 73.0504 217.847 72.8973L217.795 72.8635C217.304 72.5512 216.966 72.3381 216.663 72.1772C211.355 69.3576 206.027 65.5904 201.769 61.4214C200.59 60.2663 199.152 58.7228 198.058 56.917C196.972 55.1254 196.051 52.7903 196.361 50.1293C196.558 48.4363 197.578 47.1605 198.368 46.3821C199.203 45.5599 200.191 44.8874 201.078 44.367C202.849 43.3286 204.831 42.539 206.089 42.1667C209.335 41.2065 213.101 40.494 216.719 40.35C215.982 36.2151 216.513 30.9073 219.746 26.9653Z" fill="url(#paint0_linear_321_902)"/>
<defs>
<linearGradient id="paint0_linear_321_902" x1="83.5754" y1="321.45" x2="364.897" y2="208.902" gradientUnits="userSpaceOnUse">
<stop offset="0.225962" stop-color="#9356FC"/>
<stop offset="0.778846" stop-color="#CD8EFA"/>
</linearGradient>
</defs>
</svg>
