<svg width="33" height="28" viewBox="0 0 33 28" fill="none" xmlns="http://www.w3.org/2000/svg">
<path d="M7.7334 12.9202C8.75853 12.9202 9.75444 12.875 10.7747 12.7829" stroke="#DC2626" stroke-linecap="round"/>
<path d="M17.2373 12.3712C18.137 12.3322 19.0955 11.8109 20.0252 11.685" stroke="#DC2626" stroke-linecap="round"/>
<path d="M12.1685 20.1939C13.1902 19.198 14.8117 18.8022 15.8433 19.9195" stroke="#DC2626" stroke-linecap="round"/>
<path d="M8.00821 4.42708C5.40165 5.32802 3.23586 7.09189 1.98443 9.73802C0.380218 13.1301 0.53505 17.4716 2.19956 20.8053C3.94497 24.3011 7.45559 25.9059 10.9189 26.5C13.2887 26.9066 15.6517 26.648 18.012 26.2602C20.3419 25.8773 22.7009 25.1406 24.8014 23.9714C28.3628 21.9889 32.0271 18.5951 32.1349 13.8634C32.2229 10.0058 29.9374 6.40227 27.1426 4.20779C23.512 1.35708 18.6893 0.605658 14.3294 1.17883C12.2615 1.45069 10.2457 2.04095 8.36255 3.01539C6.5062 3.97595 5.17253 5.39476 3.79409 7.01745" stroke="#DC2626" stroke-linecap="round"/>
</svg>
