<svg width="394" height="214" viewBox="0 0 394 214" fill="none" xmlns="http://www.w3.org/2000/svg">
<path d="M82.7051 105.955C89.2302 122.654 108.439 128.778 125.126 127.66C141.624 126.556 156.498 120.903 167.275 107.876C175.001 98.538 180.195 85.0014 179.157 72.7793C178.069 59.9618 170.166 48.6034 158.952 42.5649C145.227 35.1747 130.601 36.3557 116.517 42.4631C90.8952 53.5731 73.2362 80.6226 81.6179 108.437" stroke="url(#paint0_linear_174_796)" stroke-width="7" stroke-linecap="round"/>
<path d="M147.151 90.2607C146.954 88.9889 147.825 87.7981 149.097 87.6006C150.369 87.4034 151.56 88.2743 151.757 89.5462C152.079 91.6256 152.476 94.7241 152.132 97.6607C151.792 100.558 150.643 103.927 147.294 105.583C143.939 107.242 140.901 107.155 138.098 106.344C136.212 105.799 134.277 104.858 132.509 103.998C131.866 103.685 131.245 103.384 130.657 103.116C129.486 102.581 128.969 101.199 129.504 100.028C130.037 98.8566 131.419 98.3402 132.59 98.8738C133.438 99.2604 134.208 99.6347 134.929 99.9857C136.541 100.771 137.915 101.439 139.393 101.867C141.302 102.418 143.108 102.453 145.227 101.405C146.464 100.793 147.231 99.4214 147.501 97.1183C147.767 94.8547 147.466 92.2923 147.151 90.2607ZM104.13 81.5091C104.095 80.2227 105.11 79.1515 106.397 79.1166C108.983 79.0468 111.442 78.7961 114.068 78.5283C114.522 78.482 114.982 78.4354 115.447 78.389C115.474 78.3862 115.503 78.3829 115.532 78.38C116.356 78.2975 117.794 78.1539 119.215 78.2009C119.953 78.2253 120.77 78.303 121.547 78.5008C122.295 78.6914 123.22 79.0466 123.959 79.7777C124.849 80.6584 125.068 81.7743 124.983 82.7149C124.905 83.582 124.571 84.3904 124.223 85.05C123.52 86.384 122.384 87.7922 121.264 89.0353C120.117 90.3079 118.867 91.5382 117.835 92.5233C117.339 92.9978 116.918 93.3921 116.579 93.7106C116.168 94.0957 115.875 94.3707 115.706 94.5443C114.808 95.4668 113.333 95.4871 112.411 94.5896C111.488 93.6921 111.468 92.2167 112.365 91.2942C112.595 91.058 113.028 90.651 113.54 90.1692C113.876 89.8539 114.246 89.5063 114.615 89.1535C115.616 88.1983 116.769 87.0605 117.801 85.9156C118.827 84.7765 119.626 83.7451 120.061 82.9492C119.781 82.9034 119.446 82.8724 119.061 82.8596C117.955 82.823 116.775 82.9408 115.923 83.0259L115.91 83.0268C115.464 83.0714 115.018 83.1175 114.571 83.1632C111.95 83.431 109.297 83.7014 106.522 83.7763C105.236 83.8107 104.164 82.7957 104.13 81.5091ZM145.631 61.5721C146.301 60.4732 147.735 60.1256 148.834 60.7955C149.932 61.4657 150.281 62.9002 149.61 63.9991C149.499 64.1816 149.224 64.5839 148.878 65.0895C148.606 65.4863 148.291 65.9466 147.977 66.4145C147.199 67.5757 146.27 69.01 145.453 70.4391C144.633 71.8751 144.005 73.1716 143.715 74.1264C143.896 74.1247 144.097 74.1129 144.317 74.0893C145.124 74.0029 145.983 73.7862 146.656 73.5834C150.226 72.5075 153.65 71.3285 157.128 69.9693C158.327 69.5008 159.679 70.0932 160.148 71.2921C160.616 72.4909 160.023 73.8423 158.825 74.3108C155.227 75.7164 151.686 76.9359 148 78.0466C147.202 78.2871 146.031 78.5932 144.813 78.7237C143.688 78.8442 142.08 78.8691 140.71 78.1276C139.508 77.4776 139.034 76.3408 138.929 75.373C138.833 74.49 139.011 73.602 139.227 72.8668C139.669 71.3661 140.53 69.662 141.406 68.1278C142.302 66.5591 143.3 65.02 144.105 63.8197C144.494 63.2395 144.842 62.7317 145.112 62.3377L145.142 62.2935C145.281 62.0915 145.394 61.9258 145.483 61.7945C145.527 61.7295 145.562 61.6776 145.589 61.6366C145.602 61.6164 145.613 61.6005 145.621 61.5887C145.627 61.5782 145.63 61.5728 145.631 61.5721Z" fill="url(#paint1_linear_174_796)"/>
<path d="M34.6738 104.43C38.9188 102.53 42.8895 104.523 45.1596 107.386C46.6947 109.323 47.7047 111.946 47.6047 114.596C48.1907 114.413 48.7734 114.235 49.3447 114.061C49.6972 113.954 50.0462 113.848 50.3882 113.742C51.8993 113.277 53.3368 112.81 54.7254 112.242C56.8536 111.371 58.8642 110.452 60.9321 109.507C62.5555 108.765 64.2147 108.007 65.9952 107.242C69.8716 105.578 73.9522 104.064 78.2366 103.315C79.5044 103.094 80.7116 103.942 80.9333 105.21C81.1549 106.478 80.307 107.686 79.0392 107.908C75.2837 108.564 71.5914 109.912 67.8343 111.525C66.3071 112.18 64.6908 112.917 63.0542 113.663C60.8492 114.668 58.6063 115.691 56.491 116.556C54.9017 117.206 53.2995 117.723 51.7599 118.197C51.384 118.313 51.0137 118.426 50.6482 118.537C49.5117 118.883 48.4181 119.216 47.3242 119.591C47.3118 119.598 47.2942 119.608 47.2723 119.622C47.2694 119.623 47.2637 119.627 47.2564 119.632C47.1769 119.683 46.8487 119.896 46.5095 120.031C46.0319 120.221 45.2651 120.385 44.4108 120.048C43.6589 119.75 43.1955 119.197 42.9288 118.807C42.8643 118.712 42.8105 118.613 42.7617 118.513C42.2669 117.841 42.1496 116.925 42.5366 116.121C43.3398 114.45 42.9384 112.086 41.508 110.282C40.1194 108.531 38.2958 107.916 36.5777 108.685C34.7895 109.485 33.9023 111.185 33.9046 113.408C33.9071 115.698 34.8942 118.069 36.3178 119.434C36.6152 119.719 36.82 120.065 36.9325 120.433C37.0261 120.596 37.1083 120.78 37.1698 120.989C37.3706 121.67 37.24 122.266 37.1023 122.635C36.966 123 36.772 123.287 36.6209 123.483C35.8493 124.482 34.4271 124.682 33.4117 123.947C33.0187 124.038 32.6032 124.151 32.24 124.257C31.8645 124.368 31.6139 124.452 31.5281 124.48C31.5017 124.489 31.4907 124.491 31.497 124.489C28.4428 125.702 25.1751 127.776 23.4426 130.142C23.1036 130.605 22.9158 130.935 22.8126 131.157C23.0111 131.213 23.2773 131.268 23.6193 131.308C25.661 131.551 28.5274 131.15 30.2822 130.905C30.4535 130.881 30.6145 130.859 30.7628 130.839C32.0381 130.666 33.2139 131.559 33.3876 132.834C33.5367 133.929 32.8981 134.947 31.9084 135.325C30.9023 136.337 29.8809 137.962 29.3452 139.691C28.7879 141.49 28.8733 142.978 29.4693 143.971C29.5174 144.052 29.5572 144.108 29.5878 144.148C29.7125 144.105 29.9492 144 30.3045 143.739C31.4295 142.915 32.5737 141.419 33.0966 140.598C33.4365 140.064 33.9579 139.715 34.5288 139.581C34.5631 139.523 34.5996 139.467 34.6359 139.412C35.3412 138.336 36.7858 138.034 37.8624 138.739C38.9389 139.445 39.24 140.889 38.535 141.966C38.477 142.055 38.2995 142.453 38.1891 143.179C38.0863 143.856 38.0742 144.611 38.1732 145.277C38.2772 145.976 38.4709 146.371 38.5999 146.53C38.6067 146.538 38.6115 146.546 38.6159 146.552C38.6387 146.584 38.6421 146.587 38.7586 146.579C39.2931 146.544 40.0364 146.19 40.8079 145.36C41.5638 144.547 42.0986 143.534 42.2986 142.735C42.611 141.486 43.8766 140.727 45.1252 141.039C46.3735 141.352 47.1324 142.617 46.8202 143.866C46.413 145.493 45.4668 147.195 44.2228 148.534C42.9947 149.855 41.218 151.09 39.0649 151.232C37.3353 151.346 35.9253 150.63 34.9825 149.47C34.362 148.707 33.9856 147.808 33.7601 146.937C33.5319 147.135 33.2986 147.325 33.0587 147.501C32.173 148.149 30.8991 148.859 29.4214 148.839C27.7144 148.816 26.3585 147.847 25.4717 146.368C23.9237 143.787 24.1327 140.768 24.8936 138.312C25.1358 137.53 25.4448 136.761 25.8062 136.027C24.8687 136.056 23.9267 136.038 23.0675 135.936C22.2915 135.843 21.4566 135.673 20.6922 135.342C19.9286 135.011 19.067 134.444 18.5215 133.473C17.3546 131.395 18.3975 129.142 19.6815 127.389C22.1361 124.037 26.3026 121.536 29.7769 120.157C29.9243 120.098 30.3336 119.961 30.858 119.806C29.8174 117.85 29.2456 115.591 29.2432 113.414C29.2395 109.922 30.7407 106.19 34.6738 104.43ZM209.639 32.4857C213.723 31.1129 217.357 32.8377 219.721 35.4069C221.196 37.0085 222.307 39.0569 222.868 41.2C223.359 40.9585 223.754 40.7825 223.902 40.7257C227.391 39.3843 232.149 38.3963 236.226 39.196C238.358 39.6144 240.652 40.5646 241.203 42.8834C241.46 43.967 241.211 44.9666 240.874 45.7276C240.536 46.4895 240.039 47.1816 239.531 47.7757C238.969 48.4335 238.289 49.0855 237.58 49.6999C238.344 49.9944 239.093 50.3496 239.801 50.7602C242.026 52.0499 244.225 54.127 244.837 57.0742C245.188 58.7623 244.849 60.3938 243.61 61.5682C242.537 62.5849 241.119 62.927 240.028 63.0507C239.733 63.0842 239.432 63.1025 239.13 63.1121C239.555 63.9051 239.888 64.8205 239.949 65.8024C240.042 67.2941 239.491 68.7756 238.142 69.8645C236.463 71.22 234.32 71.5168 232.522 71.3783C230.7 71.238 228.851 70.6292 227.448 69.7091C226.372 69.0031 226.072 67.5577 226.778 66.4815C227.484 65.4054 228.929 65.106 230.005 65.812C230.694 66.2639 231.773 66.6456 232.88 66.7309C234.01 66.8178 234.797 66.5737 235.214 66.2372C235.304 66.1642 235.305 66.1599 235.3 66.1209C235.299 66.1133 235.297 66.104 235.296 66.093C235.283 65.8887 235.158 65.4679 234.761 64.8836C234.382 64.3268 233.862 63.7798 233.327 63.3519C232.754 62.8933 232.354 62.721 232.251 62.6948C231.002 62.3816 230.244 61.1156 230.558 59.8671C230.871 58.6188 232.137 57.8607 233.385 58.174C233.449 58.19 233.514 58.2069 233.578 58.2257C234.088 57.9373 234.708 57.8401 235.32 58.0021C236.261 58.2512 238.116 58.5745 239.502 58.4176C239.939 58.368 240.185 58.2861 240.306 58.2332C240.302 58.183 240.292 58.1137 240.273 58.0219C240.037 56.8875 239.092 55.7365 237.462 54.7921C235.896 53.8843 234.044 53.3819 232.618 53.3196C231.635 53.7134 230.476 53.3978 229.843 52.4925C229.106 51.4373 229.365 49.9835 230.42 49.2464C230.543 49.1607 230.676 49.0678 230.818 48.9692C232.274 47.9593 234.653 46.3098 235.989 44.747C236.212 44.4852 236.371 44.2647 236.479 44.0888C236.253 43.996 235.891 43.8814 235.328 43.771C232.451 43.2065 228.641 43.8975 225.574 45.0767C225.57 45.0787 225.561 45.0832 225.546 45.0899C225.464 45.1271 225.222 45.2364 224.871 45.4103C224.532 45.578 224.15 45.7766 223.8 45.9764C223.552 47.2048 222.37 48.0221 221.125 47.8111C220.882 47.7697 220.545 47.6893 220.197 47.5132C219.846 47.3351 219.346 46.9866 219.032 46.3498C218.936 46.1547 218.87 45.9634 218.828 45.7794C218.661 45.4327 218.578 45.04 218.604 44.6288C218.725 42.6603 217.843 40.2479 216.292 38.5629C214.787 36.9272 212.981 36.2792 211.124 36.9034C209.34 37.5032 208.417 39.192 208.584 41.4209C208.756 43.717 210.063 45.7257 211.786 46.409C212.616 46.7382 213.15 47.4921 213.242 48.3218C213.274 48.4283 213.302 48.5374 213.318 48.6506C213.387 49.1186 213.421 49.8385 213.07 50.5668C212.671 51.3943 211.996 51.7933 211.516 51.9772C211.175 52.1078 210.79 52.1751 210.697 52.1914C210.688 52.1928 210.681 52.1938 210.678 52.1945C210.653 52.1993 210.633 52.2041 210.619 52.2071C209.561 52.6735 208.531 53.1692 207.461 53.6854C207.117 53.8514 206.769 54.0203 206.414 54.1901C204.96 54.8851 203.433 55.5904 201.824 56.1901C199.682 56.9883 197.34 57.7571 195.038 58.5136C193.33 59.075 191.642 59.63 190.075 60.1835C186.22 61.5454 182.591 63.0572 179.385 65.1209C178.303 65.8175 176.861 65.5053 176.164 64.4231C175.467 63.341 175.78 61.899 176.862 61.2021C180.519 58.8479 184.545 57.194 188.522 55.789C190.349 55.1436 192.084 54.5759 193.78 54.0206C195.941 53.3133 198.042 52.6247 200.196 51.8217C201.602 51.2977 202.975 50.6677 204.402 49.9856C204.724 49.8311 205.053 49.6724 205.385 49.5123C205.923 49.2528 206.471 48.9882 207.027 48.726C205.156 46.8458 204.121 44.2321 203.936 41.768C203.664 38.1245 205.23 33.9676 209.639 32.4857Z" fill="url(#paint2_linear_174_796)"/>
<path d="M292.758 176.412C292.548 177.349 292.46 178.703 293.292 179.933C294.756 182.097 297.374 182.525 299.292 182.562C300.398 182.583 301.522 182.475 302.51 182.339C302.44 183.591 302.482 184.842 302.735 186.081C303.159 188.153 304.149 190.07 305.938 191.885C308.278 194.257 311.166 194.471 313.655 193.616C316.035 192.799 318.127 191.009 319.494 189.147C320.137 188.27 319.949 187.037 319.071 186.393C318.194 185.75 316.961 185.939 316.317 186.816C315.311 188.187 313.83 189.389 312.375 189.889C311.029 190.351 309.82 190.209 308.744 189.118C307.462 187.818 306.859 186.578 306.596 185.291C306.32 183.945 306.39 182.431 306.652 180.529C306.785 179.568 306.199 178.675 305.306 178.387C304.908 178.14 304.423 178.03 303.926 178.118L303.849 178.132C302.577 178.357 300.914 178.652 299.367 178.622C297.692 178.59 296.88 178.19 296.565 177.739C296.555 177.703 296.536 177.573 296.604 177.272C296.706 176.812 296.931 176.304 297.204 175.72C297.643 174.777 298.417 173.928 299.434 172.991C302.219 170.422 305.221 168.106 308.294 165.736C309.034 165.166 309.777 164.591 310.523 164.01C311.264 163.434 311.479 162.434 311.095 161.619C310.988 161.228 310.762 160.866 310.42 160.595C309.219 159.645 307.281 157.628 306.363 155.75C305.897 154.799 305.846 154.194 305.922 153.885C305.957 153.741 306.081 153.338 307.139 152.967C309.094 152.282 310.915 152.759 312.669 154.011C314.469 155.295 316.036 157.303 317.187 159.251C317.323 159.481 317.499 159.673 317.7 159.824C317.714 159.941 317.737 160.059 317.773 160.175C318.091 161.215 319.192 161.8 320.233 161.482C324.509 160.172 328.546 158.518 332.561 156.872C333.553 156.465 334.544 156.058 335.536 155.658C344.34 152.108 353.249 148.816 362.198 145.552C363.22 145.179 363.746 144.048 363.373 143.026C363 142.004 361.869 141.477 360.847 141.85C351.894 145.115 342.932 148.427 334.063 152.004C333.023 152.423 332.001 152.841 330.99 153.256C327.483 154.693 324.108 156.076 320.575 157.238C319.276 155.043 317.375 152.528 314.957 150.803C312.49 149.042 309.337 148.021 305.835 149.248C303.9 149.927 302.53 151.163 302.094 152.952C301.697 154.577 302.197 156.202 302.823 157.481C303.689 159.254 305.095 160.964 306.37 162.24C306.229 162.35 306.088 162.46 305.946 162.57C302.862 164.947 299.687 167.395 296.762 170.094C295.677 171.095 294.413 172.377 293.631 174.057C293.627 174.067 293.621 174.077 293.617 174.087C293.367 174.624 292.964 175.49 292.758 176.412Z" fill="url(#paint3_linear_174_796)"/>
<path d="M382.269 121.709C378.936 136.494 363.659 144.052 349.571 145.238C335.642 146.411 322.492 143.575 311.83 134.057C304.186 127.233 298.126 116.579 297.44 106.232C296.722 95.3809 301.884 84.8837 310.49 78.4123C321.022 70.4922 333.397 69.6214 345.944 72.9369C368.77 78.9681 386.965 99.3329 383.493 123.645" stroke="url(#paint4_linear_174_796)" stroke-width="7" stroke-linecap="round"/>
<path d="M245.084 87.4132C242.044 83.7833 236.9 83.5609 233.286 86.0943C231.143 87.5964 230.307 89.7966 229.966 91.8279C229.17 91.4833 228.437 91.2124 228.077 91.0797C228.001 91.0519 227.942 91.0304 227.902 91.0153C224.014 89.5359 219.987 88.6665 215.553 89.4632C213.669 89.802 211.951 90.7113 211.459 92.6077C211.036 94.2396 211.778 95.824 212.455 96.8885C213.196 98.0537 214.22 99.1588 215.191 100.04C215.457 100.281 215.73 100.513 216.002 100.733C215.373 100.794 214.739 100.898 214.137 101.063C213.105 101.345 211.9 101.873 211.064 102.904C210.137 104.047 209.908 105.501 210.337 107.038C211.127 109.869 213.229 111.4 215.43 112.142C217.568 112.864 219.946 112.909 221.822 112.764C222.232 112.733 222.603 112.577 222.902 112.338C222.909 112.837 223.108 113.316 223.451 113.673C223.459 113.754 223.464 113.822 223.468 113.867L223.47 113.878C223.523 114.476 223.508 115.028 223.49 115.693C223.482 115.984 223.472 116.297 223.469 116.644C223.457 117.692 223.503 118.94 223.941 120.232C224.911 123.094 227.294 124.546 229.718 124.849C232.068 125.143 234.637 124.396 236.403 122.715C237.19 121.964 237.22 120.717 236.47 119.929C235.719 119.141 234.472 119.111 233.684 119.862C232.843 120.663 231.48 121.098 230.207 120.939C229.007 120.789 228.075 120.154 227.673 118.967C227.453 118.318 227.399 117.607 227.409 116.687C227.412 116.484 227.418 116.258 227.424 116.016C227.445 115.271 227.47 114.372 227.394 113.526C227.394 113.521 227.393 113.514 227.393 113.505C227.38 113.359 227.322 112.685 227.208 112.139C227.177 111.989 227.13 111.794 227.062 111.599C227.062 111.597 227.061 111.595 227.06 111.593C227.018 111.473 226.863 111.026 226.475 110.652C226.238 110.424 225.771 110.087 225.092 110.075C224.406 110.062 223.92 110.387 223.665 110.621C223.655 110.631 223.645 110.642 223.635 110.651L223.635 110.648C223.551 109.564 222.605 108.752 221.52 108.835C219.883 108.961 218.108 108.887 216.689 108.408C215.332 107.95 214.473 107.201 214.132 105.979C213.997 105.494 214.112 105.395 214.124 105.386L214.125 105.385C214.218 105.271 214.51 105.047 215.178 104.864C216.517 104.498 218.293 104.583 219.097 104.764C220.158 105.004 221.213 104.337 221.453 103.275C221.633 102.476 221.3 101.68 220.671 101.234C220.672 101.233 220.673 101.231 220.673 101.23C221.163 100.258 220.772 99.0728 219.8 98.5832C219.405 98.3838 218.663 97.8684 217.84 97.1211C217.03 96.3864 216.272 95.5469 215.781 94.7741C215.379 94.1417 215.298 93.7853 215.281 93.6533C215.394 93.5761 215.664 93.4469 216.251 93.3414C219.719 92.7182 222.981 93.3584 226.501 94.6978C226.568 94.7233 226.653 94.7546 226.752 94.7913C227.355 95.0153 228.492 95.4379 229.42 95.9253C229.519 95.977 229.61 96.027 229.695 96.0753C229.681 96.4931 229.801 96.9188 230.064 97.2847C230.698 98.1685 231.929 98.3704 232.813 97.7362C233.315 97.3757 233.886 96.7308 233.933 95.7743C233.958 95.2693 233.825 94.8414 233.655 94.5042C233.668 94.4249 233.677 94.3441 233.68 94.2617C233.779 91.9079 234.22 90.2512 235.548 89.321C237.715 87.8023 240.507 88.0856 242.063 89.9437C242.537 90.5093 243.002 91.5635 243.333 92.9087C243.654 94.2128 243.791 95.5477 243.769 96.4836C243.764 96.6575 243.75 96.8185 243.73 96.9725C243.08 97.0695 242.493 97.4878 242.212 98.1349C241.824 99.0282 242.151 100.049 242.94 100.565C243.049 101.356 243.632 102.033 244.456 102.218C245.004 102.342 245.55 102.222 245.983 101.933C250.192 103.788 254.372 105.682 258.563 107.583C261.652 108.985 264.748 110.391 267.867 111.784C271.304 113.319 274.683 115.015 278.122 116.742C280.005 117.688 281.907 118.643 283.847 119.585C289.262 122.217 294.854 124.69 300.697 126.302C301.746 126.592 302.831 125.975 303.12 124.926C303.41 123.878 302.794 122.793 301.746 122.503C296.255 120.988 290.921 118.642 285.569 116.041C283.731 115.148 281.876 114.216 280.011 113.28C276.514 111.524 272.983 109.753 269.474 108.186C266.402 106.813 263.324 105.416 260.241 104.017C256.005 102.096 251.757 100.172 247.498 98.2952C247.609 97.7965 247.691 97.2366 247.707 96.5795C247.739 95.2556 247.554 93.5703 247.159 91.9663C246.774 90.4033 246.129 88.6608 245.084 87.4132Z" fill="url(#paint5_linear_174_796)"/>
<path d="M314.994 92.4409C314.037 95.1421 313.386 97.8272 312.757 100.614" stroke="url(#paint6_linear_174_796)" stroke-width="7" stroke-linecap="round"/>
<path d="M333.752 100.219C332.375 103.184 332.072 106.398 331.637 109.603" stroke="url(#paint7_linear_174_796)" stroke-width="7" stroke-linecap="round"/>
<path d="M331.377 126.504C327.263 126.461 324.036 125.574 320.032 124.342" stroke="url(#paint8_linear_174_796)" stroke-width="7" stroke-linecap="round"/>
<defs>
<linearGradient id="paint0_linear_174_796" x1="112.905" y1="43.8216" x2="144.206" y2="123.923" gradientUnits="userSpaceOnUse">
<stop offset="0.908654" stop-color="white"/>
<stop offset="1" stop-color="#CD8EFA"/>
</linearGradient>
<linearGradient id="paint1_linear_174_796" x1="128.661" y1="67.6915" x2="143.994" y2="106.93" gradientUnits="userSpaceOnUse">
<stop offset="0.908654" stop-color="white"/>
<stop offset="1" stop-color="#CD8EFA"/>
</linearGradient>
<linearGradient id="paint2_linear_174_796" x1="121.547" y1="66.8972" x2="139.319" y2="112.378" gradientUnits="userSpaceOnUse">
<stop offset="0.908654" stop-color="white"/>
<stop offset="1" stop-color="#CD8EFA"/>
</linearGradient>
<linearGradient id="paint3_linear_174_796" x1="292.378" y1="177.767" x2="366.221" y2="150.834" gradientUnits="userSpaceOnUse">
<stop offset="0.908654" stop-color="white"/>
<stop offset="1" stop-color="#CD8EFA"/>
</linearGradient>
<linearGradient id="paint4_linear_174_796" x1="349.135" y1="73.6137" x2="333.149" y2="144.538" gradientUnits="userSpaceOnUse">
<stop offset="0.908654" stop-color="white"/>
<stop offset="1" stop-color="#CD8EFA"/>
</linearGradient>
<linearGradient id="paint5_linear_174_796" x1="261.659" y1="89.3833" x2="252.499" y2="130.021" gradientUnits="userSpaceOnUse">
<stop offset="0.908654" stop-color="white"/>
<stop offset="1" stop-color="#CD8EFA"/>
</linearGradient>
<linearGradient id="paint6_linear_174_796" x1="314.806" y1="92.3986" x2="312.945" y2="100.657" gradientUnits="userSpaceOnUse">
<stop offset="0.908654" stop-color="white"/>
<stop offset="1" stop-color="#CD8EFA"/>
</linearGradient>
<linearGradient id="paint7_linear_174_796" x1="333.567" y1="100.177" x2="331.452" y2="109.561" gradientUnits="userSpaceOnUse">
<stop offset="0.908654" stop-color="white"/>
<stop offset="1" stop-color="#CD8EFA"/>
</linearGradient>
<linearGradient id="paint8_linear_174_796" x1="325.747" y1="125.235" x2="325.606" y2="125.86" gradientUnits="userSpaceOnUse">
<stop offset="0.908654" stop-color="white"/>
<stop offset="1" stop-color="#CD8EFA"/>
</linearGradient>
</defs>
</svg>
