<svg width="276" height="197" viewBox="0 0 276 197" fill="none" xmlns="http://www.w3.org/2000/svg">
<path d="M233.174 5.36133C234.515 4.50202 236.575 3.59477 238.966 4.19238C243.169 5.2434 245.324 9.08112 246.471 12.0479C247.133 13.7603 247.603 15.5719 247.954 17.1885C249.864 16.3684 251.839 15.7227 253.912 15.4141C257.383 14.8975 260.932 15.349 264.776 17.1064C269.803 19.4044 271.778 23.7826 271.86 28.1475C271.939 32.3208 270.34 36.5992 268.215 39.7871C267.214 41.2888 265.184 41.6945 263.683 40.6934C262.181 39.6921 261.775 37.6628 262.776 36.1611C264.341 33.8138 265.373 30.8222 265.325 28.2705C265.281 25.9106 264.371 24.1087 262.06 23.0518C259.305 21.7925 257.03 21.558 254.874 21.8789C252.62 22.2144 250.301 23.1828 247.486 24.6729C246.061 25.4274 244.331 25.0218 243.376 23.7891C242.768 23.3098 242.326 22.6169 242.181 21.7949L242.158 21.668C241.786 19.5581 241.299 16.7985 240.374 14.4053C239.372 11.813 238.288 10.7746 237.404 10.54C237.344 10.5455 237.13 10.5891 236.699 10.8652C236.041 11.2871 235.378 11.9264 234.622 12.6826C233.402 13.9026 232.52 15.5922 231.637 17.709C229.216 23.5091 227.314 29.5048 225.367 35.6396C224.899 37.1167 224.428 38.6023 223.946 40.0947C223.47 41.5717 222.041 42.4738 220.558 42.3457C219.883 42.4042 219.185 42.2559 218.564 41.874C216.401 40.5425 212.156 38.6683 208.708 38.3047C206.961 38.1205 205.991 38.3863 205.553 38.6787C205.348 38.8158 204.79 39.2374 204.813 41.0967C204.857 44.5338 206.635 47.0997 209.581 49.1211C212.607 51.1967 216.626 52.4969 220.317 53.1836C220.752 53.2646 221.151 53.4291 221.5 53.6562C221.69 53.6111 221.886 53.581 222.088 53.5703C223.89 53.4754 225.429 54.8606 225.523 56.6631C225.913 64.0705 225.629 71.3016 225.346 78.4951C225.276 80.2717 225.206 82.0462 225.146 83.8203C224.618 99.5567 224.551 115.311 224.551 131.11C224.551 132.915 223.088 134.379 221.283 134.379C219.478 134.379 218.015 132.915 218.015 131.11C218.015 115.303 218.081 99.4545 218.613 83.6006C218.676 81.742 218.748 79.9113 218.819 78.1006C219.066 71.8186 219.302 65.7728 219.105 59.6055C214.946 58.83 209.946 57.2985 205.884 54.5117C201.737 51.667 198.355 47.3333 198.277 41.1787C198.234 37.7779 199.381 34.9414 201.921 33.2441C204.229 31.7023 207.045 31.557 209.394 31.8047C212.649 32.148 216.114 33.3681 218.828 34.6299C218.918 34.3469 219.01 34.064 219.1 33.7803C221.052 27.6238 223.062 21.2844 225.604 15.1914C226.547 12.9319 227.827 10.2333 230 8.06055C230.013 8.04752 230.027 8.03483 230.04 8.02148C230.734 7.3277 231.854 6.20705 233.174 5.36133Z" fill="white"/>
<path d="M233.174 5.36133L231.286 2.41422L231.286 2.41425L233.174 5.36133ZM238.966 4.19238L239.815 0.796914L239.815 0.796884L238.966 4.19238ZM246.471 12.0479L249.735 10.7857L249.735 10.7857L246.471 12.0479ZM247.954 17.1885L244.534 17.9308L245.434 22.0792L249.335 20.4046L247.954 17.1885ZM253.912 15.4141L253.397 11.9522L253.397 11.9522L253.912 15.4141ZM264.776 17.1064L266.232 13.9233L266.231 13.9233L264.776 17.1064ZM271.86 28.1475L275.36 28.0815V28.0815L271.86 28.1475ZM268.215 39.7871L271.127 41.7288L271.127 41.7286L268.215 39.7871ZM263.683 40.6934L261.741 43.6053L261.741 43.6055L263.683 40.6934ZM262.776 36.1611L265.689 38.1026V38.1026L262.776 36.1611ZM265.325 28.2705L268.825 28.2045V28.2045L265.325 28.2705ZM262.06 23.0518L263.515 19.8687L263.515 19.8686L262.06 23.0518ZM254.874 21.8789L254.359 18.417L254.359 18.4171L254.874 21.8789ZM247.486 24.6729L245.849 21.5796L245.849 21.5796L247.486 24.6729ZM243.376 23.7891L246.143 21.6458L245.88 21.3068L245.544 21.0413L243.376 23.7891ZM242.181 21.7949L245.627 21.1863L245.627 21.1852L242.181 21.7949ZM242.158 21.668L238.711 22.2759L238.712 22.2777L242.158 21.668ZM240.374 14.4053L243.639 13.1432L243.639 13.1432L240.374 14.4053ZM237.404 10.54L238.303 7.15727L237.706 6.99899L237.092 7.05398L237.404 10.54ZM236.699 10.8652L234.811 7.91816L234.811 7.91831L236.699 10.8652ZM234.622 12.6826L232.147 10.2077V10.2077L234.622 12.6826ZM231.637 17.709L228.407 16.361L228.407 16.361L231.637 17.709ZM225.367 35.6396L228.703 36.6981L225.367 35.6396ZM223.946 40.0947L227.277 41.1698L227.277 41.1695L223.946 40.0947ZM220.558 42.3457L220.859 38.8587L220.557 38.8326L220.255 38.8588L220.558 42.3457ZM218.564 41.874L220.399 38.8932L220.399 38.8932L218.564 41.874ZM208.708 38.3047L209.075 34.824L209.075 34.824L208.708 38.3047ZM205.553 38.6787L203.609 35.768L203.608 35.7685L205.553 38.6787ZM204.813 41.0967L201.314 41.141L201.314 41.1411L204.813 41.0967ZM209.581 49.1211L207.601 52.0072L207.601 52.0072L209.581 49.1211ZM220.317 53.1836L220.958 49.7427L220.958 49.7426L220.317 53.1836ZM221.5 53.6562L219.592 56.5903L220.85 57.4086L222.31 57.0612L221.5 53.6562ZM222.088 53.5703L221.904 50.0751L221.904 50.0752L222.088 53.5703ZM225.523 56.6631L229.019 56.4791V56.4791L225.523 56.6631ZM225.346 78.4951L228.843 78.6328V78.6328L225.346 78.4951ZM225.146 83.8203L221.648 83.7028L225.146 83.8203ZM224.551 131.11L228.051 131.11V131.11H224.551ZM221.283 134.379V137.879H221.284L221.283 134.379ZM218.015 131.11H214.515V131.11L218.015 131.11ZM218.613 83.6006L215.115 83.4831L218.613 83.6006ZM218.819 78.1006L222.317 78.2378L218.819 78.1006ZM219.105 59.6055L222.604 59.4938L222.514 56.6806L219.747 56.1647L219.105 59.6055ZM205.884 54.5117L203.904 57.3979L203.904 57.3979L205.884 54.5117ZM198.277 41.1787L194.778 41.2229L194.778 41.223L198.277 41.1787ZM201.921 33.2441L199.976 30.3339L199.976 30.334L201.921 33.2441ZM209.394 31.8047L209.761 28.324L209.761 28.324L209.394 31.8047ZM218.828 34.6299L217.353 37.8038L220.961 39.4808L222.164 35.6885L218.828 34.6299ZM219.1 33.7803L222.436 34.8382L219.1 33.7803ZM225.604 15.1914L222.374 13.8434L222.374 13.8434L225.604 15.1914ZM230 8.06055L232.475 10.5354L232.475 10.5354L230 8.06055ZM230.04 8.02148L232.515 10.496L232.515 10.496L230.04 8.02148ZM233.174 5.36133L235.062 8.30844C236.048 7.67667 237.082 7.32915 238.117 7.58788L238.966 4.19238L239.815 0.796884C236.069 -0.139616 232.982 1.32736 231.286 2.41422L233.174 5.36133ZM238.966 4.19238L238.117 7.58785C240.54 8.19373 242.128 10.5224 243.206 13.31L246.471 12.0479L249.735 10.7857C248.519 7.63984 245.799 2.29308 239.815 0.796914L238.966 4.19238ZM246.471 12.0479L243.206 13.31C243.777 14.7862 244.202 16.4031 244.534 17.9308L247.954 17.1885L251.374 16.4461C251.004 14.7407 250.489 12.7344 249.735 10.7857L246.471 12.0479ZM247.954 17.1885L249.335 20.4046C251.059 19.6644 252.736 19.1277 254.427 18.8759L253.912 15.4141L253.397 11.9522C250.942 12.3177 248.67 13.0723 246.573 13.9723L247.954 17.1885ZM253.912 15.4141L254.427 18.8759C257.194 18.4641 260.06 18.7991 263.321 20.2896L264.776 17.1064L266.231 13.9233C261.803 11.8989 257.572 11.3308 253.397 11.9522L253.912 15.4141ZM264.776 17.1064L263.321 20.2896C266.887 21.9195 268.299 24.9122 268.361 28.2135L271.86 28.1475L275.36 28.0815C275.257 22.6529 272.719 16.8892 266.232 13.9233L264.776 17.1064ZM271.86 28.1475L268.361 28.2134C268.423 31.5176 267.128 35.107 265.303 37.8457L268.215 39.7871L271.127 41.7286C273.552 38.0914 275.455 33.124 275.36 28.0815L271.86 28.1475ZM268.215 39.7871L265.303 37.8455C265.374 37.7389 265.518 37.7102 265.624 37.7812L263.683 40.6934L261.741 43.6055C264.851 45.6789 269.053 44.8387 271.127 41.7288L268.215 39.7871ZM263.683 40.6934L265.624 37.7815C265.731 37.8523 265.76 37.9958 265.689 38.1026L262.776 36.1611L259.864 34.2197C257.791 37.3298 258.631 41.5318 261.741 43.6053L263.683 40.6934ZM262.776 36.1611L265.689 38.1026C267.554 35.3043 268.889 31.6238 268.825 28.2045L265.325 28.2705L261.826 28.3365C261.858 30.0206 261.129 32.3232 259.864 34.2197L262.776 36.1611ZM265.325 28.2705L268.825 28.2045C268.794 26.6016 268.465 24.9215 267.551 23.3836C266.617 21.8129 265.226 20.6512 263.515 19.8687L262.06 23.0518L260.604 26.2348C261.204 26.5092 261.425 26.7769 261.534 26.9615C261.663 27.1787 261.812 27.5795 261.826 28.3366L265.325 28.2705ZM262.06 23.0518L263.515 19.8686C260.176 18.3424 257.219 17.9913 254.359 18.417L254.874 21.8789L255.389 25.3408C256.841 25.1246 258.434 25.2426 260.604 26.2349L262.06 23.0518ZM254.874 21.8789L254.359 18.4171C251.505 18.8419 248.761 20.0378 245.849 21.5796L247.486 24.6729L249.124 27.7661C251.841 26.3278 253.736 25.5869 255.389 25.3408L254.874 21.8789ZM247.486 24.6729L245.849 21.5796C245.897 21.5542 245.959 21.5474 246.009 21.5585C246.054 21.5683 246.104 21.5954 246.143 21.6458L243.376 23.7891L240.609 25.9324C242.588 28.487 246.169 29.3307 249.124 27.7661L247.486 24.6729ZM243.376 23.7891L245.544 21.0413C245.559 21.0532 245.577 21.0716 245.593 21.0987C245.611 21.1278 245.623 21.1595 245.627 21.1863L242.181 21.7949L238.734 22.4035C239.036 24.1133 239.961 25.5526 241.208 26.5369L243.376 23.7891ZM242.181 21.7949L245.627 21.1852L245.605 21.0582L242.158 21.668L238.712 22.2777L238.734 22.4047L242.181 21.7949ZM242.158 21.668L245.605 21.06C245.243 19.0091 244.708 15.9082 243.639 13.1432L240.374 14.4053L237.109 15.6673C237.891 17.6888 238.329 20.1071 238.711 22.2759L242.158 21.668ZM240.374 14.4053L243.639 13.1432C242.554 10.3391 240.911 7.84986 238.303 7.15727L237.404 10.54L236.506 13.9228C236.041 13.7993 235.952 13.5824 236.147 13.8186C236.341 14.0528 236.695 14.596 237.11 15.6674L240.374 14.4053ZM237.404 10.54L237.092 7.05398C236.247 7.12963 235.482 7.48818 234.811 7.91816L236.699 10.8652L238.587 13.8123C238.657 13.7677 238.623 13.7978 238.495 13.849C238.38 13.8953 238.109 13.9909 237.716 14.0261L237.404 10.54ZM236.699 10.8652L234.811 7.91831C233.782 8.57769 232.861 9.49419 232.147 10.2077L234.622 12.6826L237.097 15.1575C237.896 14.3586 238.3 13.9964 238.588 13.8122L236.699 10.8652ZM234.622 12.6826L232.147 10.2077C230.415 11.9395 229.32 14.1721 228.407 16.361L231.637 17.709L234.867 19.057C235.72 17.0123 236.389 15.8657 237.097 15.1575L234.622 12.6826ZM231.637 17.709L228.407 16.361C225.917 22.3276 223.969 28.4717 222.031 34.5812L225.367 35.6396L228.703 36.6981C230.658 30.5379 232.516 24.6907 234.867 19.0569L231.637 17.709ZM225.367 35.6396L222.031 34.5812C221.562 36.0609 221.094 37.5374 220.615 39.0199L223.946 40.0947L227.277 41.1695C227.762 39.6672 228.236 38.1725 228.703 36.6981L225.367 35.6396ZM223.946 40.0947L220.616 39.0196C220.632 38.9695 220.67 38.9216 220.713 38.8936C220.75 38.8695 220.8 38.8536 220.859 38.8587L220.558 42.3457L220.256 45.8327C223.325 46.0978 226.287 44.2364 227.277 41.1698L223.946 40.0947ZM220.558 42.3457L220.255 38.8588C220.275 38.8571 220.299 38.8581 220.327 38.8644C220.355 38.8709 220.38 38.8818 220.399 38.8932L218.564 41.874L216.73 44.8548C218.016 45.646 219.468 45.9535 220.86 45.8326L220.558 42.3457ZM218.564 41.874L220.399 38.8932C217.967 37.3968 213.217 35.2608 209.075 34.824L208.708 38.3047L208.341 41.7854C211.095 42.0758 214.834 43.6882 216.73 44.8549L218.564 41.874ZM208.708 38.3047L209.075 34.824C207.001 34.6053 205.046 34.8088 203.609 35.768L205.553 38.6787L207.496 41.5895C207.32 41.707 207.19 41.7574 207.145 41.7732C207.095 41.7905 207.1 41.7833 207.176 41.7716C207.331 41.7475 207.699 41.7177 208.341 41.7854L208.708 38.3047ZM205.553 38.6787L203.608 35.7685C203.13 36.0879 202.418 36.6844 201.914 37.7878C201.469 38.762 201.298 39.8886 201.314 41.141L204.813 41.0967L208.313 41.0524C208.306 40.4454 208.402 40.4316 208.281 40.6959C208.214 40.8417 208.101 41.0291 207.924 41.2216C207.742 41.42 207.563 41.5449 207.497 41.5889L205.553 38.6787ZM204.813 41.0967L201.314 41.1411C201.376 46.0246 204.003 49.5389 207.601 52.0072L209.581 49.1211L211.561 46.235C209.266 44.6605 208.338 43.043 208.313 41.0523L204.813 41.0967ZM209.581 49.1211L207.601 52.0072C211.185 54.4657 215.734 55.8909 219.677 56.6245L220.317 53.1836L220.958 49.7426C217.519 49.1029 214.029 47.9277 211.561 46.235L209.581 49.1211ZM220.317 53.1836L219.677 56.6245C219.647 56.619 219.616 56.6064 219.592 56.5903L221.5 53.6562L223.408 50.7222C222.685 50.2519 221.858 49.9102 220.958 49.7427L220.317 53.1836ZM221.5 53.6562L222.31 57.0612C222.312 57.0607 222.299 57.0641 222.272 57.0655L222.088 53.5703L221.904 50.0752C221.473 50.0979 221.067 50.1615 220.69 50.2513L221.5 53.6562ZM222.088 53.5703L222.272 57.0655C222.143 57.0723 222.035 56.9738 222.028 56.847L225.523 56.6631L229.019 56.4791C228.822 52.7475 225.638 49.8786 221.904 50.0751L222.088 53.5703ZM225.523 56.6631L222.028 56.847C222.408 64.068 222.133 71.1403 221.848 78.3574L225.346 78.4951L228.843 78.6328C229.125 71.4629 229.418 64.073 229.019 56.4791L225.523 56.6631ZM225.346 78.4951L221.848 78.3574C221.779 80.1327 221.708 81.917 221.648 83.7028L225.146 83.8203L228.645 83.9378C228.704 82.1753 228.773 80.4108 228.843 78.6328L225.346 78.4951ZM225.146 83.8203L221.648 83.7028C221.118 99.5021 221.051 115.306 221.051 131.11H224.551H228.051C228.051 115.315 228.118 99.6112 228.645 83.9378L225.146 83.8203ZM224.551 131.11L221.051 131.11C221.051 130.983 221.154 130.879 221.283 130.879L221.283 134.379L221.284 137.879C225.022 137.878 228.051 134.847 228.051 131.11L224.551 131.11ZM221.283 134.379V130.879C221.411 130.879 221.515 130.982 221.515 131.11L218.015 131.11L214.515 131.11C214.515 134.848 217.545 137.879 221.283 137.879V134.379ZM218.015 131.11H221.515C221.515 115.307 221.581 99.509 222.111 83.7181L218.613 83.6006L215.115 83.4831C214.581 99.4 214.515 115.298 214.515 131.11H218.015ZM218.613 83.6006L222.111 83.7181C222.173 81.8714 222.245 80.0516 222.317 78.2378L218.819 78.1006L215.322 77.9634C215.251 79.7711 215.178 81.6126 215.115 83.4831L218.613 83.6006ZM218.819 78.1006L222.317 78.2378C222.562 71.9756 222.805 65.806 222.604 59.4938L219.105 59.6055L215.607 59.7171C215.799 65.7396 215.569 71.6616 215.322 77.9634L218.819 78.1006ZM219.105 59.6055L219.747 56.1647C215.839 55.4363 211.368 54.0297 207.864 51.6256L205.884 54.5117L203.904 57.3979C208.524 60.5673 214.052 62.2238 218.464 63.0462L219.105 59.6055ZM205.884 54.5117L207.864 51.6256C204.355 49.2183 201.836 45.8294 201.777 41.1344L198.277 41.1787L194.778 41.223C194.874 48.8372 199.12 54.1157 203.904 57.3979L205.884 54.5117ZM198.277 41.1787L201.777 41.1345C201.744 38.5461 202.584 37.0104 203.865 36.1543L201.921 33.2441L199.976 30.334C196.178 32.8724 194.724 37.0097 194.778 41.2229L198.277 41.1787ZM201.921 33.2441L203.865 36.1543C205.171 35.2821 206.998 35.0714 209.026 35.2854L209.394 31.8047L209.761 28.324C207.092 28.0426 203.286 28.1225 199.976 30.3339L201.921 33.2441ZM209.394 31.8047L209.026 35.2854C211.755 35.5732 214.828 36.6304 217.353 37.8038L218.828 34.6299L220.303 31.456C217.399 30.1058 213.543 28.7228 209.761 28.324L209.394 31.8047ZM218.828 34.6299L222.164 35.6885C222.175 35.6537 222.416 34.9021 222.436 34.8382L219.1 33.7803L215.763 32.7223C215.604 33.226 215.661 33.0402 215.492 33.5713L218.828 34.6299ZM219.1 33.7803L222.436 34.8382C224.396 28.6572 226.361 22.4659 228.835 16.5394L225.604 15.1914L222.374 13.8434C219.762 20.1028 217.708 26.5905 215.763 32.7223L219.1 33.7803ZM225.604 15.1914L228.834 16.5394C229.745 14.3589 230.811 12.1989 232.475 10.5354L230 8.06055L227.525 5.58567C224.843 8.26767 223.35 11.505 222.374 13.8434L225.604 15.1914ZM230 8.06055L232.475 10.5354C232.463 10.5473 232.454 10.5562 232.45 10.5601C232.446 10.5634 232.444 10.5658 232.448 10.5615C232.451 10.559 232.46 10.5501 232.471 10.5401C232.481 10.5295 232.497 10.5143 232.515 10.496L230.04 8.02148L227.565 5.54693C227.576 5.53535 227.585 5.52669 227.589 5.52263C227.593 5.51918 227.596 5.51676 227.591 5.52078C227.589 5.5229 227.58 5.53176 227.57 5.54152C227.559 5.55193 227.544 5.56727 227.525 5.58571L230 8.06055ZM230.04 8.02148L232.515 10.496C233.23 9.78136 234.104 8.92234 235.062 8.3084L233.174 5.36133L231.286 2.41425C229.604 3.49176 228.238 4.87404 227.565 5.54693L230.04 8.02148Z" fill="url(#paint0_linear_159_900)"/>
<path d="M31.4824 29.4897C33.6974 28.4101 35.9004 28.8701 37.3906 29.4331C38.857 29.9871 40.1846 30.8511 41.0068 31.3862C41.0227 31.3965 41.0383 31.4074 41.0537 31.4175C43.6294 33.0934 45.4407 35.4686 46.8311 37.4839C50.5802 42.9183 53.8594 48.704 57.0439 54.3228C57.1906 54.5815 57.3381 54.8392 57.4844 55.0972C59.8788 53.3006 63.0161 51.3904 66.1299 50.3804C68.3763 49.6518 71.1615 49.2104 73.7383 50.2407C76.5749 51.3752 78.2852 53.9132 78.9473 57.2495C80.1453 63.2868 77.7334 68.2261 74.2656 71.8677C70.8682 75.4354 66.2938 77.9694 62.3848 79.5894C63.4691 85.6639 64.9533 91.5296 66.4951 97.6245C66.9395 99.3812 67.3881 101.157 67.834 102.962C71.6374 118.363 74.9838 133.854 78.2568 149.319C78.6305 151.085 77.5022 152.819 75.7363 153.193C73.9707 153.566 72.2361 152.438 71.8623 150.672C68.591 135.215 65.2635 119.816 61.4883 104.53C61.0627 102.807 60.6276 101.085 60.1914 99.3618C58.4249 92.3826 56.6484 85.3664 55.4961 78.0386C55.216 76.2559 56.4342 74.5838 58.2168 74.3032C58.4159 74.2719 58.614 74.2594 58.8086 74.2642C59.1035 73.9692 59.4608 73.7266 59.8701 73.5571C63.3389 72.1211 67.002 70.0169 69.5322 67.3599C71.9963 64.7722 73.2043 61.8937 72.5352 58.522C72.1733 56.6983 71.5407 56.4017 71.3115 56.3101C70.8226 56.1145 69.818 56.055 68.1465 56.5972C64.8484 57.6669 61.0843 60.3797 59.2432 62.1304C58.715 62.6326 58.0624 62.9231 57.3906 63.0054C55.9662 63.4376 54.3815 62.8497 53.6094 61.5034C52.8292 60.1431 52.0611 58.787 51.2969 57.439C48.1226 51.8403 45.02 46.3689 41.4512 41.1958C40.1486 39.3077 38.9354 37.837 37.4893 36.896C36.5926 36.3126 35.8116 35.8237 35.0801 35.5474C34.6015 35.3666 34.3837 35.3692 34.3232 35.3765C33.5078 35.7891 32.6624 37.0289 32.2188 39.772C31.809 42.305 31.9038 45.1053 31.9766 47.2466L31.9814 47.3755C32.0097 48.2104 31.7184 48.9798 31.2227 49.5747C30.5434 50.9778 28.936 51.7335 27.3857 51.2905C24.3238 50.4156 21.8544 49.9481 19.5801 50.0864C17.4043 50.2189 15.2272 50.9189 12.793 52.7212C10.75 54.2339 10.2336 56.1853 10.6787 58.5034C11.16 61.0096 12.7888 63.7224 14.8057 65.6948C16.0961 66.9568 16.1193 69.0264 14.8574 70.3169C13.5954 71.6074 11.5258 71.6306 10.2354 70.3687C7.49611 67.6899 5.04689 63.835 4.25977 59.7358C3.43656 55.4485 4.46135 50.7562 8.90332 47.4673C12.301 44.9516 15.6799 43.7752 19.1826 43.562C21.275 43.4347 23.3402 43.6572 25.3789 44.064C25.3875 42.4099 25.4725 40.5402 25.7656 38.728C26.2735 35.588 27.5875 31.3882 31.4824 29.4897Z" fill="white"/>
<path d="M31.4824 29.4897L29.9489 26.3436L29.9489 26.3436L31.4824 29.4897ZM37.3906 29.4331L38.6276 26.159L38.6276 26.159L37.3906 29.4331ZM41.0068 31.3862L39.0976 34.3196L39.0976 34.3197L41.0068 31.3862ZM41.0537 31.4175L39.1448 34.3511L39.1449 34.3511L41.0537 31.4175ZM46.8311 37.4839L49.712 35.4964L49.712 35.4964L46.8311 37.4839ZM57.0439 54.3228L53.999 56.0485L57.0439 54.3228ZM57.4844 55.0972L54.4398 56.8235L56.4023 60.2846L59.5849 57.8968L57.4844 55.0972ZM66.1299 50.3804L65.0501 47.0511L65.05 47.0511L66.1299 50.3804ZM73.7383 50.2407L75.038 46.991L75.0378 46.9909L73.7383 50.2407ZM78.9473 57.2495L82.3803 56.5682L82.3803 56.5682L78.9473 57.2495ZM74.2656 71.8677L76.8002 74.2813L76.8003 74.2813L74.2656 71.8677ZM62.3848 79.5894L61.0449 76.356L58.4446 77.4335L58.9392 80.2044L62.3848 79.5894ZM66.4951 97.6245L63.102 98.4829L66.4951 97.6245ZM67.834 102.962L71.2319 102.123L67.834 102.962ZM78.2568 149.319L81.681 148.594L81.681 148.594L78.2568 149.319ZM75.7363 153.193L76.4607 156.617L76.461 156.617L75.7363 153.193ZM71.8623 150.672L68.4381 151.397L68.4382 151.397L71.8623 150.672ZM61.4883 104.53L64.8862 103.691L61.4883 104.53ZM60.1914 99.3618L56.7984 100.221L60.1914 99.3618ZM55.4961 78.0386L52.0385 78.5817L52.0386 78.5823L55.4961 78.0386ZM58.2168 74.3032L57.6731 70.8457L57.6726 70.8458L58.2168 74.3032ZM58.8086 74.2642L58.723 77.7631L60.2229 77.7998L61.2838 76.7388L58.8086 74.2642ZM59.8701 73.5571L61.2089 76.791L61.2089 76.791L59.8701 73.5571ZM69.5322 67.3599L72.0668 69.7735L72.0669 69.7735L69.5322 67.3599ZM72.5352 58.522L75.9682 57.8407L75.9682 57.8407L72.5352 58.522ZM71.3115 56.3101L72.6114 53.0604L72.6113 53.0603L71.3115 56.3101ZM68.1465 56.5972L67.0667 53.2679L67.0666 53.2679L68.1465 56.5972ZM59.2432 62.1304L56.8314 59.5939L56.8314 59.594L59.2432 62.1304ZM57.3906 63.0054L56.9651 59.5313L56.6643 59.5682L56.3742 59.6562L57.3906 63.0054ZM53.6094 61.5034L50.5732 63.2446L50.5733 63.2448L53.6094 61.5034ZM51.2969 57.439L48.2522 59.1652L51.2969 57.439ZM41.4512 41.1958L44.3321 39.2083L44.3321 39.2083L41.4512 41.1958ZM37.4893 36.896L39.3981 33.9623L39.3981 33.9623L37.4893 36.896ZM35.0801 35.5474L36.317 32.2732L36.3167 32.2731L35.0801 35.5474ZM34.3232 35.3765L33.9066 31.9014L33.2938 31.9748L32.7431 32.2535L34.3232 35.3765ZM32.2188 39.772L28.7637 39.2131V39.2131L32.2188 39.772ZM31.9766 47.2466L28.4786 47.3655L28.4791 47.3791L31.9766 47.2466ZM31.9814 47.3755L35.4795 47.257L35.4789 47.243L31.9814 47.3755ZM31.2227 49.5747L28.5339 47.334L28.2593 47.6635L28.0724 48.0497L31.2227 49.5747ZM27.3857 51.2905L28.3474 47.9252L28.3474 47.9252L27.3857 51.2905ZM19.5801 50.0864L19.3676 46.5929L19.3674 46.5929L19.5801 50.0864ZM12.793 52.7212L10.7103 49.9083L10.7102 49.9084L12.793 52.7212ZM10.6787 58.5034L7.2415 59.1634L7.24152 59.1635L10.6787 58.5034ZM14.8057 65.6948L12.3585 68.1971L12.3586 68.1972L14.8057 65.6948ZM14.8574 70.3169L17.3598 72.764L17.3599 72.7639L14.8574 70.3169ZM10.2354 70.3687L7.78826 72.871L7.78827 72.871L10.2354 70.3687ZM4.25977 59.7358L0.822552 60.3958L0.822562 60.3959L4.25977 59.7358ZM8.90332 47.4673L6.82063 44.6544L6.82062 44.6544L8.90332 47.4673ZM19.1826 43.562L18.97 40.0685L18.97 40.0685L19.1826 43.562ZM25.3789 44.064L24.694 47.4963L28.8569 48.327L28.8789 44.0821L25.3789 44.064ZM25.7656 38.728L22.3105 38.1692L22.3105 38.1692L25.7656 38.728ZM31.4824 29.4897L33.0159 32.6359C33.9758 32.168 35.0596 32.2939 36.1537 32.7072L37.3906 29.4331L38.6276 26.159C36.7412 25.4463 33.419 24.6522 29.9489 26.3436L31.4824 29.4897ZM37.3906 29.4331L36.1536 32.7072C37.2183 33.1095 38.2512 33.7688 39.0976 34.3196L41.0068 31.3862L42.916 28.4528C42.118 27.9334 40.4956 26.8647 38.6276 26.159L37.3906 29.4331ZM41.0068 31.3862L39.0976 34.3197C39.0858 34.3119 39.0771 34.3061 39.0733 34.3036C39.0703 34.3016 39.0682 34.3002 39.073 34.3034C39.0758 34.3053 39.0857 34.312 39.0965 34.3192C39.108 34.3269 39.1248 34.3381 39.1448 34.3511L41.0537 31.4175L42.9626 28.4838C42.9749 28.4919 42.984 28.4979 42.9877 28.5004C42.9907 28.5024 42.9928 28.5039 42.9878 28.5005C42.9848 28.4984 42.9749 28.4918 42.964 28.4845C42.9524 28.4767 42.9358 28.4657 42.916 28.4528L41.0068 31.3862ZM41.0537 31.4175L39.1449 34.3511C41.1171 35.6344 42.6086 37.5268 43.9501 39.4714L46.8311 37.4839L49.712 35.4964C48.2728 33.4103 46.1417 30.5524 42.9625 28.4838L41.0537 31.4175ZM46.8311 37.4839L43.9501 39.4714C47.5969 44.7574 50.8018 50.4075 53.999 56.0485L57.0439 54.3228L60.0889 52.597C56.9169 47.0005 53.5635 41.0792 49.712 35.4964L46.8311 37.4839ZM57.0439 54.3228L53.999 56.0485C54.099 56.2249 54.3497 56.6648 54.4398 56.8235L57.4844 55.0972L60.529 53.3708C60.3265 53.0137 60.2822 52.938 60.0889 52.597L57.0439 54.3228ZM57.4844 55.0972L59.5849 57.8968C61.8109 56.2266 64.5992 54.5564 67.2098 53.7096L66.1299 50.3804L65.05 47.0511C61.4329 48.2244 57.9467 50.3747 55.3839 52.2976L57.4844 55.0972ZM66.1299 50.3804L67.2097 53.7096C69.1506 53.0801 70.9814 52.9078 72.4388 53.4905L73.7383 50.2407L75.0378 46.9909C71.3417 45.5129 67.6019 46.2235 65.0501 47.0511L66.1299 50.3804ZM73.7383 50.2407L72.4386 53.4904C73.8701 54.063 75.0105 55.3924 75.5142 57.9308L78.9473 57.2495L82.3803 56.5682C81.5599 52.434 79.2798 48.6875 75.038 46.991L73.7383 50.2407ZM78.9473 57.2495L75.5142 57.9308C76.4281 62.5359 74.6658 66.3721 71.731 69.454L74.2656 71.8677L76.8003 74.2813C80.8009 70.0801 83.8626 64.0377 82.3803 56.5682L78.9473 57.2495ZM74.2656 71.8677L71.731 69.454C68.8 72.532 64.7169 74.8343 61.0449 76.356L62.3848 79.5894L63.7247 82.8227C67.8708 81.1046 72.9365 78.3388 76.8002 74.2813L74.2656 71.8677ZM62.3848 79.5894L58.9392 80.2044C60.0491 86.4218 61.5651 92.4077 63.102 98.4829L66.4951 97.6245L69.8882 96.7661C68.3414 90.6515 66.8892 84.9059 65.8303 78.9743L62.3848 79.5894ZM66.4951 97.6245L63.102 98.4829C63.5465 100.24 63.9929 102.007 64.4361 103.802L67.834 102.962L71.2319 102.123C70.7834 100.307 70.3326 98.5225 69.8882 96.7661L66.4951 97.6245ZM67.834 102.962L64.4361 103.802C68.2244 119.141 71.5606 134.583 74.8327 150.044L78.2568 149.319L81.681 148.594C78.4071 133.125 75.0504 117.585 71.2319 102.123L67.834 102.962ZM78.2568 149.319L74.8327 150.043C74.8062 149.919 74.886 149.795 75.0117 149.769L75.7363 153.193L76.461 156.617C80.1183 155.843 82.4548 152.251 81.681 148.594L78.2568 149.319ZM75.7363 153.193L75.0119 149.769C75.1369 149.742 75.2598 149.822 75.2864 149.947L71.8623 150.672L68.4382 151.397C69.2124 155.054 72.8044 157.391 76.4607 156.617L75.7363 153.193ZM71.8623 150.672L75.2865 149.948C72.0142 134.486 68.6765 119.038 64.8862 103.691L61.4883 104.53L58.0904 105.369C61.8505 120.594 65.1677 135.944 68.4381 151.397L71.8623 150.672ZM61.4883 104.53L64.8862 103.691C64.4579 101.956 64.0205 100.226 63.5844 98.503L60.1914 99.3618L56.7984 100.221C57.2348 101.945 57.6675 103.657 58.0904 105.369L61.4883 104.53ZM60.1914 99.3618L63.5844 98.503C61.812 91.5005 60.0769 84.6381 58.9536 77.4949L55.4961 78.0386L52.0386 78.5823C53.2199 86.0947 55.0378 93.2648 56.7984 100.221L60.1914 99.3618ZM55.4961 78.0386L58.9537 77.4954C58.9737 77.6226 58.8867 77.7409 58.761 77.7607L58.2168 74.3032L57.6726 70.8458C53.9816 71.4268 51.4584 74.8891 52.0385 78.5817L55.4961 78.0386ZM58.2168 74.3032L58.7605 77.7607C58.7489 77.7626 58.7364 77.7634 58.723 77.7631L58.8086 74.2642L58.8942 70.7652C58.4917 70.7554 58.0829 70.7813 57.6731 70.8457L58.2168 74.3032ZM58.8086 74.2642L61.2838 76.7388C61.2562 76.7663 61.2282 76.783 61.2089 76.791L59.8701 73.5571L58.5314 70.3233C57.6933 70.6702 56.9507 71.1721 56.3334 71.7896L58.8086 74.2642ZM59.8701 73.5571L61.2089 76.791C64.915 75.2567 69.0699 72.9207 72.0668 69.7735L69.5322 67.3599L66.9976 64.9462C64.9341 67.1132 61.7627 68.9855 58.5313 70.3233L59.8701 73.5571ZM69.5322 67.3599L72.0669 69.7735C75.0757 66.6137 76.9189 62.6315 75.9682 57.8407L72.5352 58.522L69.1021 59.2032C69.4896 61.156 68.9169 62.9306 66.9976 64.9463L69.5322 67.3599ZM72.5352 58.522L75.9682 57.8407C75.7245 56.6125 75.3242 55.5456 74.6871 54.6846C73.9653 53.7092 73.1443 53.2735 72.6114 53.0604L71.3115 56.3101L70.0117 59.5597C69.9389 59.5306 69.7382 59.4454 69.5186 59.2891C69.3055 59.1374 69.1556 58.9775 69.0601 58.8484C68.887 58.6145 68.9839 58.6078 69.1021 59.2032L72.5352 58.522ZM71.3115 56.3101L72.6113 53.0603C71.0073 52.4188 69.0512 52.6242 67.0667 53.2679L68.1465 56.5972L69.2263 59.9264C69.84 59.7274 70.2064 59.6803 70.3633 59.6718C70.4394 59.6676 70.4459 59.6737 70.3941 59.6669C70.3467 59.6608 70.2085 59.6385 70.0118 59.5598L71.3115 56.3101ZM68.1465 56.5972L67.0666 53.2679C63.1044 54.5531 58.9003 57.6268 56.8314 59.5939L59.2432 62.1304L61.6549 64.6668C63.2683 63.1327 66.5923 60.7808 69.2263 59.9264L68.1465 56.5972ZM59.2432 62.1304L56.8314 59.594C56.8464 59.5797 56.8681 59.5642 56.8943 59.552C56.9194 59.5403 56.9436 59.534 56.9651 59.5313L57.3906 63.0054L57.8161 66.4794C59.206 66.3092 60.5627 65.7053 61.6549 64.6668L59.2432 62.1304ZM57.3906 63.0054L56.3742 59.6562C56.4321 59.6386 56.4848 59.6441 56.5256 59.66C56.5727 59.6783 56.6195 59.7169 56.6454 59.7621L53.6094 61.5034L50.5733 63.2448C52.1754 66.038 55.4582 67.2494 58.407 66.3545L57.3906 63.0054ZM53.6094 61.5034L56.6455 59.7622C55.8706 58.411 55.1073 57.0633 54.3416 55.7127L51.2969 57.439L48.2522 59.1652C49.015 60.5107 49.7878 61.8751 50.5732 63.2446L53.6094 61.5034ZM51.2969 57.439L54.3416 55.7127C51.1804 50.1372 48.0033 44.5298 44.3321 39.2083L41.4512 41.1958L38.5702 43.1833C42.0367 48.208 45.0648 53.5434 48.2522 59.1652L51.2969 57.439ZM41.4512 41.1958L44.3321 39.2083C42.985 37.2557 41.4508 35.298 39.3981 33.9623L37.4893 36.896L35.5804 39.8296C36.42 40.376 37.3122 41.3598 38.5702 43.1833L41.4512 41.1958ZM37.4893 36.896L39.3981 33.9623C38.5531 33.4125 37.461 32.7054 36.317 32.2732L35.0801 35.5474L33.8431 38.8215C34.1622 38.9421 34.6322 39.2127 35.5804 39.8297L37.4893 36.896ZM35.0801 35.5474L36.3167 32.2731C35.5592 31.987 34.7406 31.8014 33.9066 31.9014L34.3232 35.3765L34.7399 38.8516C34.3581 38.8973 34.0781 38.8626 33.9494 38.8404C33.8111 38.8165 33.7686 38.7933 33.8434 38.8216L35.0801 35.5474ZM34.3232 35.3765L32.7431 32.2535C30.336 33.4714 29.2437 36.2454 28.7637 39.2131L32.2188 39.772L35.6738 40.3308C35.8572 39.1971 36.0916 38.5925 36.2324 38.3234C36.3744 38.0523 36.3323 38.2825 35.9034 38.4995L34.3232 35.3765ZM32.2188 39.772L28.7637 39.2131C28.2903 42.1395 28.4078 45.2836 28.4786 47.3655L31.9766 47.2466L35.4745 47.1277C35.3997 44.9271 35.3278 42.4705 35.6738 40.3308L32.2188 39.772ZM31.9766 47.2466L28.4791 47.3791L28.484 47.508L31.9814 47.3755L35.4789 47.243L35.4741 47.1141L31.9766 47.2466ZM31.9814 47.3755L28.4835 47.494C28.4825 47.4649 28.4875 47.4303 28.4989 47.3979C28.5096 47.3678 28.523 47.3471 28.5339 47.334L31.2227 49.5747L33.9114 51.8154C34.9266 50.5972 35.5384 48.998 35.4794 47.257L31.9814 47.3755ZM31.2227 49.5747L28.0724 48.0497C28.0996 47.9933 28.1426 47.9568 28.1841 47.9379C28.2311 47.9166 28.2943 47.9101 28.3474 47.9252L27.3857 51.2905L26.4241 54.6558C29.6413 55.5752 32.9667 54.0047 34.3729 51.0998L31.2227 49.5747ZM27.3857 51.2905L28.3474 47.9252C25.1795 47.02 22.2476 46.4177 19.3676 46.5929L19.5801 50.0864L19.7926 53.58C21.4612 53.4785 23.468 53.8111 26.4241 54.6558L27.3857 51.2905ZM19.5801 50.0864L19.3674 46.5929C16.4816 46.7685 13.6608 47.7237 10.7103 49.9083L12.793 52.7212L14.8757 55.5341C16.7936 54.1141 18.327 53.6692 19.7927 53.58L19.5801 50.0864ZM12.793 52.7212L10.7102 49.9084C9.19752 51.0284 8.07782 52.453 7.48929 54.1831C6.91303 55.8772 6.93922 57.5891 7.2415 59.1634L10.6787 58.5034L14.1159 57.8434C13.9731 57.0996 14.035 56.6768 14.1164 56.4374C14.1855 56.2342 14.3455 55.9267 14.8758 55.534L12.793 52.7212ZM10.6787 58.5034L7.24152 59.1635C7.88643 62.5217 9.95416 65.8458 12.3585 68.1971L14.8057 65.6948L17.2528 63.1925C15.6234 61.599 14.4336 59.4975 14.1159 57.8433L10.6787 58.5034ZM14.8057 65.6948L12.3586 68.1972C12.2671 68.1077 12.2654 67.9615 12.3549 67.8699L14.8574 70.3169L17.3599 72.7639C19.9732 70.0913 19.9251 65.8058 17.2528 63.1925L14.8057 65.6948ZM14.8574 70.3169L12.3551 67.8698C12.4444 67.7785 12.5907 67.7766 12.6824 67.8663L10.2354 70.3687L7.78827 72.871C10.461 75.4847 14.7465 75.4363 17.3598 72.764L14.8574 70.3169ZM10.2354 70.3687L12.6824 67.8663C10.3296 65.5654 8.32025 62.3217 7.69697 59.0758L4.25977 59.7358L0.822562 60.3959C1.77353 65.3482 4.66258 69.8143 7.78826 72.871L10.2354 70.3687ZM4.25977 59.7358L7.69698 59.0759C7.07427 55.8327 7.83574 52.6127 10.986 50.2802L8.90332 47.4673L6.82062 44.6544C1.08696 48.8997 -0.20115 55.0643 0.822552 60.3958L4.25977 59.7358ZM8.90332 47.4673L10.986 50.2802C13.8676 48.1467 16.6028 47.2255 19.3952 47.0555L19.1826 43.562L18.97 40.0685C14.7569 40.3249 10.7344 41.7566 6.82063 44.6544L8.90332 47.4673ZM19.1826 43.562L19.3952 47.0555C21.1028 46.9516 22.8544 47.1292 24.694 47.4963L25.3789 44.064L26.0638 40.6316C23.8259 40.1851 21.4472 39.9177 18.97 40.0685L19.1826 43.562ZM25.3789 44.064L28.8789 44.0821C28.8869 42.5186 28.9681 40.8489 29.2207 39.2869L25.7656 38.728L22.3105 38.1692C21.9769 40.2315 21.888 42.3011 21.879 44.0459L25.3789 44.064ZM25.7656 38.728L29.2207 39.2869C29.6978 36.3375 30.7702 33.7305 33.0159 32.6359L31.4824 29.4897L29.9489 26.3436C24.4048 29.0459 22.8493 34.8386 22.3105 38.1692L25.7656 38.728Z" fill="url(#paint1_linear_159_900)"/>
<path d="M75.3702 138.374C75.3702 163.514 97.3341 181.316 119.698 188.373C141.81 195.351 164.123 195.559 184.847 184.045C199.704 175.791 213.397 160.762 218.28 144.269C223.401 126.973 218.875 108.104 207.31 94.4932C193.156 77.8361 173.45 71.9138 151.937 72.7022C112.802 74.1365 75.9321 100.453 72.6836 141.06" stroke="url(#paint2_linear_159_900)" stroke-width="7" stroke-linecap="round"/>
<path d="M128.432 99.0286C130.205 105.26 132.128 111.836 132.843 118.278" stroke="url(#paint3_linear_159_900)" stroke-width="7" stroke-linecap="round"/>
<path d="M162.964 95.509C162.792 101.345 162.988 105.718 164.31 111.67" stroke="url(#paint4_linear_159_900)" stroke-width="7" stroke-linecap="round"/>
<path d="M130.548 140.047C118.635 140.047 155.228 141.254 165.571 147.165C170.464 149.96 147.59 170.754 146.817 174.618" stroke="url(#paint5_linear_159_900)" stroke-width="7" stroke-linecap="round"/>
<defs>
<linearGradient id="paint0_linear_159_900" x1="235.07" y1="4" x2="235.07" y2="134.378" gradientUnits="userSpaceOnUse">
<stop offset="0.908654" stop-color="white"/>
<stop offset="1" stop-color="#CD8EFA"/>
</linearGradient>
<linearGradient id="paint1_linear_159_900" x1="41.6292" y1="28.8364" x2="41.6292" y2="153.264" gradientUnits="userSpaceOnUse">
<stop offset="0.908654" stop-color="white"/>
<stop offset="1" stop-color="#CD8EFA"/>
</linearGradient>
<linearGradient id="paint2_linear_159_900" x1="146.527" y1="72.6335" x2="146.527" y2="193.23" gradientUnits="userSpaceOnUse">
<stop offset="0.908654" stop-color="white"/>
<stop offset="1" stop-color="#CD8EFA"/>
</linearGradient>
<linearGradient id="paint3_linear_159_900" x1="130.638" y1="99.0286" x2="130.638" y2="118.278" gradientUnits="userSpaceOnUse">
<stop offset="0.908654" stop-color="white"/>
<stop offset="1" stop-color="#CD8EFA"/>
</linearGradient>
<linearGradient id="paint4_linear_159_900" x1="163.61" y1="95.509" x2="163.61" y2="111.67" gradientUnits="userSpaceOnUse">
<stop offset="0.908654" stop-color="white"/>
<stop offset="1" stop-color="#CD8EFA"/>
</linearGradient>
<linearGradient id="paint5_linear_159_900" x1="147.224" y1="140.047" x2="147.224" y2="174.618" gradientUnits="userSpaceOnUse">
<stop offset="0.908654" stop-color="white"/>
<stop offset="1" stop-color="#CD8EFA"/>
</linearGradient>
</defs>
</svg>
