<svg width="287" height="160" viewBox="0 0 287 160" fill="none" xmlns="http://www.w3.org/2000/svg">
<path d="M245.43 1.45779C246.866 0.537613 249.072 -0.433972 251.632 0.205838C256.134 1.33145 258.442 5.44178 259.67 8.61892C260.379 10.4526 260.882 12.3927 261.258 14.1238C263.304 13.2455 265.418 12.554 267.639 12.2234C271.356 11.6702 275.157 12.1537 279.275 14.0359C284.658 16.4969 286.772 21.1857 286.861 25.8601C286.945 30.3292 285.233 34.911 282.957 38.325C281.885 39.9332 279.712 40.3676 278.104 39.2957C276.495 38.2234 276.061 36.0505 277.133 34.4422C278.809 31.9284 279.914 28.7244 279.863 25.992C279.815 23.4647 278.84 21.535 276.364 20.4031C273.415 19.0547 270.979 18.8037 268.67 19.1472C266.257 19.5065 263.772 20.5437 260.758 22.1394C259.236 22.9452 257.389 22.5152 256.364 21.2039C255.708 20.6903 255.232 19.9417 255.075 19.0564L255.052 18.9207C254.653 16.6611 254.132 13.7054 253.141 11.1424C252.068 8.36691 250.906 7.2551 249.96 7.00369C249.895 7.0096 249.666 7.05618 249.205 7.35135C248.5 7.80307 247.791 8.48868 246.981 9.29861C245.674 10.6051 244.729 12.4145 243.783 14.6814C241.191 20.8929 239.154 27.3137 237.07 33.8836C236.568 35.4652 236.064 37.056 235.548 38.6541C235.038 40.2344 233.51 41.2011 231.923 41.0662C231.2 41.1298 230.45 40.97 229.784 40.5603C227.467 39.1344 222.921 37.1276 219.229 36.7381C217.358 36.5408 216.319 36.8253 215.85 37.1385C215.63 37.2853 215.033 37.7362 215.058 39.7273C215.104 43.4085 217.009 46.1562 220.164 48.3211C223.404 50.5438 227.709 51.9363 231.661 52.6717C232.139 52.7605 232.576 52.9425 232.956 53.1951C233.148 53.1381 233.348 53.1014 233.552 53.0877C235.424 52.9627 237.023 54.7952 237.121 57.1814C237.526 66.9895 237.23 76.5638 236.936 86.0887C236.863 88.441 236.791 90.7904 236.729 93.1394C236.18 113.975 236.111 134.835 236.111 155.755C236.11 158.144 234.59 160.081 232.715 160.082C230.84 160.082 229.319 158.144 229.319 155.755C229.319 134.824 229.388 113.841 229.942 92.8494C230.006 90.3885 230.081 87.9647 230.154 85.5672C230.426 76.7337 230.686 68.2527 230.407 59.5574C230.399 59.5559 230.39 59.5551 230.381 59.5535C225.923 58.7241 220.56 57.0818 216.204 54.0935C211.764 51.0471 208.141 46.4072 208.058 39.8162C208.012 36.1739 209.24 33.1358 211.96 31.3181C214.431 29.6671 217.448 29.5109 219.963 29.7761C223.449 30.1439 227.159 31.4514 230.066 32.8025C230.162 32.4994 230.26 32.1964 230.357 31.8924C232.447 25.2992 234.6 18.5103 237.323 11.9851C238.333 9.5654 239.705 6.6753 242.031 4.34842C242.045 4.33465 242.059 4.32053 242.073 4.30642C242.816 3.56341 244.016 2.36343 245.43 1.45779ZM29.4318 27.2976C31.8039 26.1415 34.1631 26.6352 35.759 27.2381C37.3295 27.8314 38.7515 28.7568 39.632 29.3299C39.649 29.3409 39.6663 29.3513 39.6828 29.3621C42.4411 31.1569 44.3804 33.7009 45.8693 35.8592C49.8844 41.6791 53.3964 47.875 56.8068 53.8924C56.9639 54.1696 57.1218 54.4461 57.2785 54.7224C59.8429 52.7984 63.2024 50.7514 66.5373 49.6697C68.9431 48.8894 71.9261 48.4176 74.6857 49.5213C77.7236 50.7363 79.5539 53.4542 80.2629 57.0271C81.5459 63.4926 78.9639 68.7825 75.2502 72.6824C71.6115 76.5035 66.7122 79.2181 62.5256 80.9529C63.6869 87.4578 65.2768 93.7396 66.9279 100.266C67.4039 102.148 67.885 104.05 68.3625 105.983C72.4357 122.475 76.0195 139.065 79.5246 155.627C79.9247 157.518 78.7164 159.376 76.8254 159.776C74.9344 160.176 73.0773 158.967 72.677 157.076C69.1736 140.522 65.6096 124.031 61.5666 107.661C61.1108 105.815 60.6441 103.971 60.177 102.126C58.2852 94.6519 56.3837 87.139 55.1496 79.2918C54.8493 77.3823 56.1542 75.5901 58.0637 75.2898C58.277 75.2563 58.489 75.2437 58.6975 75.2488C59.0131 74.9332 59.3951 74.6734 59.8332 74.492C63.548 72.9541 67.4711 70.7007 70.1809 67.8553C72.8199 65.084 74.1132 62.0004 73.3967 58.3894C73.0091 56.4366 72.3316 56.1194 72.0861 56.0213C71.5626 55.8119 70.4874 55.7484 68.6975 56.3289C65.1653 57.4745 61.1331 60.3789 59.1613 62.2537C58.595 62.7922 57.8954 63.1036 57.175 63.1912C55.6503 63.6525 53.9545 63.0236 53.1281 61.5828C52.2927 60.126 51.47 58.6738 50.6516 57.2303C47.2521 51.2343 43.9297 45.3739 40.1076 39.8338C38.7129 37.8121 37.4139 36.238 35.8654 35.2303C34.9053 34.6055 34.0687 34.0819 33.2854 33.7859C32.7725 33.5922 32.5395 33.5946 32.4748 33.6023C31.6014 34.0441 30.6951 35.3716 30.2199 38.3094C29.7812 41.0218 29.8832 44.0212 29.9611 46.3142L29.966 46.4529C29.9963 47.3514 29.6845 48.1818 29.1486 48.8201C28.4178 50.3149 26.7008 51.1184 25.0451 50.6453C21.766 49.7083 19.1214 49.2071 16.6857 49.3553C14.3557 49.4971 12.0241 50.2474 9.41719 52.1775C7.22943 53.7975 6.67588 55.8874 7.15254 58.3699C7.66799 61.0539 9.41246 63.9597 11.5725 66.0721C12.9543 67.4235 12.9794 69.6393 11.6281 71.0213C10.2767 72.4031 8.05991 72.4283 6.67793 71.0769C3.74443 68.2082 1.12147 64.0791 0.278521 59.6892C-0.602925 55.0979 0.495354 50.0736 5.25215 46.5515C8.8908 43.8575 12.5088 42.5972 16.26 42.3689C18.5005 42.2326 20.7117 42.4715 22.8947 42.907C22.9039 41.1355 22.9959 39.133 23.3098 37.1922C23.8537 33.8295 25.2607 29.3308 29.4318 27.2976Z" fill="#CD8EFA"/>
</svg>
